<svg width="522" height="350" viewBox="0 0 522 350" fill="none" xmlns="http://www.w3.org/2000/svg">
<g clip-path="url(#clip0_202_587)">
<rect x="2" width="520" height="350" rx="23" fill="#241F2A"/>
<rect y="21" width="5" height="37" rx="2.5" fill="#3F6EFF" stroke="#3F6EFF"/>
<path d="M52.6768 44.251V46H45.8828V44.251H52.6768ZM46.5068 33.2031V46H44.3008V33.2031H46.5068ZM51.7891 38.5469V40.2695H45.8828V38.5469H51.7891ZM52.6328 33.2031V34.9609H45.8828V33.2031H52.6328ZM55.8848 36.4902L57.6953 39.6455L59.541 36.4902H61.8701L58.9873 41.1572L61.9844 46H59.6553L57.7217 42.7129L55.7881 46H53.4502L56.4385 41.1572L53.5645 36.4902H55.8848ZM67.0293 44.4883C67.375 44.4883 67.6855 44.4209 67.9609 44.2861C68.2422 44.1455 68.4678 43.9521 68.6377 43.7061C68.8135 43.46 68.9102 43.1758 68.9277 42.8535H70.9229C70.9111 43.4688 70.7295 44.0283 70.3779 44.5322C70.0264 45.0361 69.5605 45.4375 68.9805 45.7363C68.4004 46.0293 67.7588 46.1758 67.0557 46.1758C66.3291 46.1758 65.6963 46.0527 65.1572 45.8066C64.6182 45.5547 64.1699 45.209 63.8125 44.7695C63.4551 44.3301 63.1855 43.8232 63.0039 43.249C62.8281 42.6748 62.7402 42.0596 62.7402 41.4033V41.0957C62.7402 40.4395 62.8281 39.8242 63.0039 39.25C63.1855 38.6699 63.4551 38.1602 63.8125 37.7207C64.1699 37.2812 64.6182 36.9385 65.1572 36.6924C65.6963 36.4404 66.3262 36.3145 67.0469 36.3145C67.8086 36.3145 68.4766 36.4668 69.0508 36.7715C69.625 37.0703 70.0762 37.4893 70.4043 38.0283C70.7383 38.5615 70.9111 39.1826 70.9229 39.8916H68.9277C68.9102 39.54 68.8223 39.2236 68.6641 38.9424C68.5117 38.6553 68.2949 38.4268 68.0137 38.2568C67.7383 38.0869 67.4072 38.002 67.0205 38.002C66.5928 38.002 66.2383 38.0898 65.957 38.2656C65.6758 38.4355 65.4561 38.6699 65.2979 38.9688C65.1396 39.2617 65.0254 39.5928 64.9551 39.9619C64.8906 40.3252 64.8584 40.7031 64.8584 41.0957V41.4033C64.8584 41.7959 64.8906 42.1768 64.9551 42.5459C65.0195 42.915 65.1309 43.2461 65.2891 43.5391C65.4531 43.8262 65.6758 44.0576 65.957 44.2334C66.2383 44.4033 66.5957 44.4883 67.0293 44.4883ZM74.6406 32.5V46H72.5312V32.5H74.6406ZM74.2715 40.8936L73.5859 40.8848C73.5918 40.2285 73.6826 39.6221 73.8584 39.0654C74.04 38.5088 74.292 38.0254 74.6143 37.6152C74.9424 37.1992 75.335 36.8799 75.792 36.6572C76.249 36.4287 76.7559 36.3145 77.3125 36.3145C77.7812 36.3145 78.2031 36.3789 78.5781 36.5078C78.959 36.6367 79.2871 36.8447 79.5625 37.1318C79.8379 37.4131 80.0459 37.7822 80.1865 38.2393C80.333 38.6904 80.4062 39.2412 80.4062 39.8916V46H78.2793V39.874C78.2793 39.417 78.2119 39.0537 78.0771 38.7842C77.9482 38.5146 77.7578 38.3213 77.5059 38.2041C77.2539 38.0811 76.9463 38.0195 76.583 38.0195C76.2021 38.0195 75.8652 38.0957 75.5723 38.248C75.2852 38.4004 75.0449 38.6084 74.8516 38.8721C74.6582 39.1357 74.5117 39.4404 74.4121 39.7861C74.3184 40.1318 74.2715 40.501 74.2715 40.8936ZM87.9121 44.0928V39.5576C87.9121 39.2178 87.8506 38.9248 87.7275 38.6787C87.6045 38.4326 87.417 38.2422 87.165 38.1074C86.9189 37.9727 86.6084 37.9053 86.2334 37.9053C85.8877 37.9053 85.5889 37.9639 85.3369 38.0811C85.085 38.1982 84.8887 38.3564 84.748 38.5557C84.6074 38.7549 84.5371 38.9805 84.5371 39.2324H82.4277C82.4277 38.8574 82.5186 38.4941 82.7002 38.1426C82.8818 37.791 83.1455 37.4775 83.4912 37.2021C83.8369 36.9268 84.25 36.71 84.7305 36.5518C85.2109 36.3936 85.75 36.3145 86.3477 36.3145C87.0625 36.3145 87.6953 36.4346 88.2461 36.6748C88.8027 36.915 89.2393 37.2783 89.5557 37.7646C89.8779 38.2451 90.0391 38.8486 90.0391 39.5752V43.8027C90.0391 44.2363 90.0684 44.626 90.127 44.9717C90.1914 45.3115 90.2822 45.6074 90.3994 45.8594V46H88.2285C88.1289 45.7715 88.0498 45.4814 87.9912 45.1299C87.9385 44.7725 87.9121 44.4268 87.9121 44.0928ZM88.2197 40.2168L88.2373 41.5264H86.7168C86.3242 41.5264 85.9785 41.5645 85.6797 41.6406C85.3809 41.7109 85.1318 41.8164 84.9326 41.957C84.7334 42.0977 84.584 42.2676 84.4844 42.4668C84.3848 42.666 84.335 42.8916 84.335 43.1436C84.335 43.3955 84.3936 43.627 84.5107 43.8379C84.6279 44.043 84.7979 44.2041 85.0205 44.3213C85.249 44.4385 85.5244 44.4971 85.8467 44.4971C86.2803 44.4971 86.6582 44.4092 86.9805 44.2334C87.3086 44.0518 87.5664 43.832 87.7539 43.5742C87.9414 43.3105 88.041 43.0615 88.0527 42.8271L88.7383 43.7676C88.668 44.0078 88.5479 44.2656 88.3779 44.541C88.208 44.8164 87.9854 45.0801 87.71 45.332C87.4404 45.5781 87.1152 45.7803 86.7344 45.9385C86.3594 46.0967 85.9258 46.1758 85.4336 46.1758C84.8125 46.1758 84.2588 46.0527 83.7725 45.8066C83.2861 45.5547 82.9053 45.2178 82.6299 44.7959C82.3545 44.3682 82.2168 43.8848 82.2168 43.3457C82.2168 42.8418 82.3105 42.3965 82.498 42.0098C82.6914 41.6172 82.9727 41.2891 83.3418 41.0254C83.7168 40.7617 84.1738 40.5625 84.7129 40.4277C85.252 40.2871 85.8672 40.2168 86.5586 40.2168H88.2197ZM94.3545 38.5205V46H92.2363V36.4902H94.2314L94.3545 38.5205ZM93.9766 40.8936L93.291 40.8848C93.2969 40.2109 93.3906 39.5928 93.5723 39.0303C93.7598 38.4678 94.0176 37.9844 94.3457 37.5801C94.6797 37.1758 95.0781 36.8652 95.541 36.6484C96.0039 36.4258 96.5195 36.3145 97.0879 36.3145C97.5449 36.3145 97.958 36.3789 98.3271 36.5078C98.7021 36.6309 99.0215 36.833 99.2852 37.1143C99.5547 37.3955 99.7598 37.7617 99.9004 38.2129C100.041 38.6582 100.111 39.2061 100.111 39.8564V46H97.9844V39.8477C97.9844 39.3906 97.917 39.0303 97.7822 38.7666C97.6533 38.4971 97.4629 38.3066 97.2109 38.1953C96.9648 38.0781 96.6572 38.0195 96.2881 38.0195C95.9248 38.0195 95.5996 38.0957 95.3125 38.248C95.0254 38.4004 94.7822 38.6084 94.583 38.8721C94.3896 39.1357 94.2402 39.4404 94.1348 39.7861C94.0293 40.1318 93.9766 40.501 93.9766 40.8936ZM108.364 36.4902H110.289V45.7363C110.289 46.5918 110.107 47.3184 109.744 47.916C109.381 48.5137 108.874 48.9678 108.224 49.2783C107.573 49.5947 106.82 49.7529 105.965 49.7529C105.602 49.7529 105.197 49.7002 104.752 49.5947C104.312 49.4893 103.885 49.3193 103.469 49.085C103.059 48.8564 102.716 48.5547 102.44 48.1797L103.434 46.9316C103.773 47.3359 104.148 47.6318 104.559 47.8193C104.969 48.0068 105.399 48.1006 105.851 48.1006C106.337 48.1006 106.75 48.0098 107.09 47.8281C107.436 47.6523 107.702 47.3916 107.89 47.0459C108.077 46.7002 108.171 46.2783 108.171 45.7803V38.6436L108.364 36.4902ZM101.904 41.3506V41.166C101.904 40.4453 101.992 39.7891 102.168 39.1973C102.344 38.5996 102.596 38.0869 102.924 37.6592C103.252 37.2256 103.65 36.8945 104.119 36.666C104.588 36.4316 105.118 36.3145 105.71 36.3145C106.325 36.3145 106.85 36.4258 107.283 36.6484C107.723 36.8711 108.089 37.1904 108.382 37.6064C108.675 38.0166 108.903 38.5088 109.067 39.083C109.237 39.6514 109.363 40.2842 109.445 40.9814V41.5703C109.369 42.25 109.24 42.8711 109.059 43.4336C108.877 43.9961 108.637 44.4824 108.338 44.8926C108.039 45.3027 107.67 45.6191 107.23 45.8418C106.797 46.0645 106.284 46.1758 105.692 46.1758C105.112 46.1758 104.588 46.0557 104.119 45.8154C103.656 45.5752 103.258 45.2383 102.924 44.8047C102.596 44.3711 102.344 43.8613 102.168 43.2754C101.992 42.6836 101.904 42.042 101.904 41.3506ZM104.022 41.166V41.3506C104.022 41.7842 104.063 42.1885 104.146 42.5635C104.233 42.9385 104.365 43.2695 104.541 43.5566C104.723 43.8379 104.951 44.0605 105.227 44.2246C105.508 44.3828 105.839 44.4619 106.22 44.4619C106.718 44.4619 107.125 44.3564 107.441 44.1455C107.764 43.9346 108.01 43.6504 108.18 43.293C108.355 42.9297 108.479 42.5254 108.549 42.0801V40.4893C108.514 40.1436 108.44 39.8213 108.329 39.5225C108.224 39.2236 108.08 38.9629 107.898 38.7402C107.717 38.5117 107.488 38.3359 107.213 38.2129C106.938 38.084 106.612 38.0195 106.237 38.0195C105.856 38.0195 105.525 38.1016 105.244 38.2656C104.963 38.4297 104.731 38.6553 104.55 38.9424C104.374 39.2295 104.242 39.5635 104.154 39.9443C104.066 40.3252 104.022 40.7324 104.022 41.166ZM116.679 46.1758C115.976 46.1758 115.34 46.0615 114.771 45.833C114.209 45.5986 113.729 45.2734 113.33 44.8574C112.938 44.4414 112.636 43.9521 112.425 43.3896C112.214 42.8271 112.108 42.2207 112.108 41.5703V41.2188C112.108 40.4746 112.217 39.8008 112.434 39.1973C112.65 38.5938 112.952 38.0781 113.339 37.6504C113.726 37.2168 114.183 36.8857 114.71 36.6572C115.237 36.4287 115.809 36.3145 116.424 36.3145C117.104 36.3145 117.698 36.4287 118.208 36.6572C118.718 36.8857 119.14 37.208 119.474 37.624C119.813 38.0342 120.065 38.5234 120.229 39.0918C120.399 39.6602 120.484 40.2871 120.484 40.9727V41.8779H113.137V40.3574H118.393V40.1904C118.381 39.8096 118.305 39.4521 118.164 39.1182C118.029 38.7842 117.821 38.5146 117.54 38.3096C117.259 38.1045 116.884 38.002 116.415 38.002C116.063 38.002 115.75 38.0781 115.475 38.2305C115.205 38.377 114.979 38.5908 114.798 38.8721C114.616 39.1533 114.476 39.4932 114.376 39.8916C114.282 40.2842 114.235 40.7266 114.235 41.2188V41.5703C114.235 41.9863 114.291 42.373 114.402 42.7305C114.52 43.082 114.689 43.3896 114.912 43.6533C115.135 43.917 115.404 44.125 115.721 44.2773C116.037 44.4238 116.397 44.4971 116.802 44.4971C117.312 44.4971 117.766 44.3945 118.164 44.1895C118.562 43.9844 118.908 43.6943 119.201 43.3193L120.317 44.4004C120.112 44.6992 119.846 44.9863 119.518 45.2617C119.189 45.5312 118.788 45.751 118.313 45.9209C117.845 46.0908 117.3 46.1758 116.679 46.1758Z" fill="white"/>
<path d="M117.321 104.963H117.834V108.33H117.543C116.074 108.33 114.803 108.558 113.732 109.014C112.673 109.469 111.801 110.096 111.118 110.894C110.434 111.691 109.921 112.625 109.58 113.696C109.249 114.756 109.084 115.884 109.084 117.08V120.994C109.084 121.985 109.192 122.862 109.409 123.625C109.625 124.377 109.927 125.01 110.314 125.522C110.713 126.024 111.169 126.405 111.682 126.667C112.194 126.93 112.747 127.061 113.339 127.061C113.955 127.061 114.513 126.935 115.014 126.685C115.515 126.423 115.943 126.064 116.296 125.608C116.649 125.152 116.917 124.611 117.099 123.984C117.281 123.358 117.373 122.674 117.373 121.934C117.373 121.227 117.281 120.566 117.099 119.951C116.928 119.325 116.672 118.778 116.33 118.311C115.988 117.832 115.561 117.462 115.048 117.2C114.547 116.926 113.966 116.79 113.305 116.79C112.485 116.79 111.739 116.983 111.066 117.371C110.406 117.758 109.87 118.265 109.46 118.892C109.061 119.507 108.845 120.162 108.811 120.857L107.238 120.344C107.329 119.285 107.563 118.333 107.939 117.49C108.326 116.647 108.833 115.929 109.46 115.337C110.087 114.744 110.81 114.294 111.63 113.987C112.462 113.668 113.374 113.508 114.365 113.508C115.572 113.508 116.621 113.736 117.509 114.192C118.398 114.648 119.133 115.269 119.714 116.055C120.306 116.829 120.745 117.718 121.03 118.721C121.326 119.712 121.474 120.749 121.474 121.831C121.474 123.027 121.292 124.144 120.927 125.181C120.563 126.206 120.027 127.106 119.321 127.881C118.626 128.656 117.777 129.259 116.774 129.692C115.783 130.125 114.655 130.342 113.391 130.342C112.058 130.342 110.867 130.085 109.819 129.573C108.782 129.06 107.899 128.354 107.17 127.454C106.452 126.554 105.905 125.517 105.529 124.343C105.153 123.17 104.965 121.928 104.965 120.618V118.909C104.965 117.017 105.205 115.234 105.683 113.56C106.162 111.873 106.896 110.387 107.888 109.099C108.89 107.812 110.172 106.803 111.733 106.074C113.294 105.334 115.157 104.963 117.321 104.963ZM141.298 105.117V107.373L131.352 130H127.011L136.94 108.398H124.055V105.117H141.298ZM160.883 115.474V119.541C160.883 121.489 160.69 123.153 160.302 124.531C159.926 125.898 159.379 127.009 158.662 127.864C157.944 128.718 157.084 129.345 156.081 129.744C155.09 130.142 153.979 130.342 152.749 130.342C151.769 130.342 150.857 130.216 150.014 129.966C149.182 129.715 148.431 129.322 147.758 128.787C147.086 128.251 146.511 127.562 146.032 126.719C145.565 125.864 145.201 124.845 144.938 123.66C144.688 122.475 144.562 121.102 144.562 119.541V115.474C144.562 113.514 144.756 111.862 145.144 110.518C145.531 109.162 146.083 108.062 146.801 107.219C147.519 106.365 148.374 105.744 149.365 105.356C150.367 104.969 151.484 104.775 152.714 104.775C153.706 104.775 154.617 104.901 155.449 105.151C156.292 105.391 157.044 105.772 157.705 106.296C158.377 106.82 158.946 107.504 159.414 108.347C159.892 109.179 160.257 110.187 160.507 111.372C160.758 112.546 160.883 113.913 160.883 115.474ZM156.765 120.122V114.858C156.765 113.867 156.708 112.996 156.594 112.244C156.48 111.48 156.309 110.837 156.081 110.312C155.865 109.777 155.591 109.344 155.261 109.014C154.93 108.672 154.554 108.427 154.133 108.279C153.711 108.119 153.238 108.04 152.714 108.04C152.076 108.04 151.507 108.165 151.005 108.416C150.504 108.655 150.083 109.042 149.741 109.578C149.399 110.113 149.137 110.819 148.955 111.697C148.784 112.563 148.698 113.617 148.698 114.858V120.122C148.698 121.125 148.755 122.008 148.869 122.771C148.983 123.534 149.154 124.189 149.382 124.736C149.61 125.272 149.883 125.716 150.202 126.069C150.533 126.411 150.909 126.662 151.33 126.821C151.763 126.981 152.236 127.061 152.749 127.061C153.398 127.061 153.973 126.935 154.475 126.685C154.976 126.434 155.397 126.035 155.739 125.488C156.081 124.93 156.337 124.207 156.508 123.318C156.679 122.429 156.765 121.364 156.765 120.122ZM180.776 115.474V119.541C180.776 121.489 180.582 123.153 180.195 124.531C179.819 125.898 179.272 127.009 178.554 127.864C177.836 128.718 176.976 129.345 175.974 129.744C174.982 130.142 173.872 130.342 172.641 130.342C171.661 130.342 170.75 130.216 169.907 129.966C169.075 129.715 168.323 129.322 167.651 128.787C166.979 128.251 166.403 127.562 165.925 126.719C165.458 125.864 165.093 124.845 164.831 123.66C164.58 122.475 164.455 121.102 164.455 119.541V115.474C164.455 113.514 164.649 111.862 165.036 110.518C165.424 109.162 165.976 108.062 166.694 107.219C167.412 106.365 168.266 105.744 169.257 105.356C170.26 104.969 171.376 104.775 172.607 104.775C173.598 104.775 174.51 104.901 175.341 105.151C176.184 105.391 176.936 105.772 177.597 106.296C178.269 106.82 178.839 107.504 179.306 108.347C179.785 109.179 180.149 110.187 180.4 111.372C180.651 112.546 180.776 113.913 180.776 115.474ZM176.657 120.122V114.858C176.657 113.867 176.6 112.996 176.486 112.244C176.372 111.48 176.201 110.837 175.974 110.312C175.757 109.777 175.484 109.344 175.153 109.014C174.823 108.672 174.447 108.427 174.025 108.279C173.604 108.119 173.131 108.04 172.607 108.04C171.969 108.04 171.399 108.165 170.898 108.416C170.397 108.655 169.975 109.042 169.633 109.578C169.292 110.113 169.029 110.819 168.847 111.697C168.676 112.563 168.591 113.617 168.591 114.858V120.122C168.591 121.125 168.648 122.008 168.762 122.771C168.876 123.534 169.047 124.189 169.274 124.736C169.502 125.272 169.776 125.716 170.095 126.069C170.425 126.411 170.801 126.662 171.223 126.821C171.656 126.981 172.128 127.061 172.641 127.061C173.291 127.061 173.866 126.935 174.367 126.685C174.868 126.434 175.29 126.035 175.632 125.488C175.974 124.93 176.23 124.207 176.401 123.318C176.572 122.429 176.657 121.364 176.657 120.122Z" fill="white"/>
<path d="M121.098 196.474V200.541C121.098 202.489 120.904 204.153 120.517 205.531C120.141 206.898 119.594 208.009 118.876 208.864C118.159 209.718 117.299 210.345 116.296 210.744C115.305 211.142 114.194 211.342 112.963 211.342C111.984 211.342 111.072 211.216 110.229 210.966C109.397 210.715 108.645 210.322 107.973 209.787C107.301 209.251 106.726 208.562 106.247 207.719C105.78 206.864 105.415 205.845 105.153 204.66C104.903 203.475 104.777 202.102 104.777 200.541V196.474C104.777 194.514 104.971 192.862 105.358 191.518C105.746 190.162 106.298 189.062 107.016 188.219C107.734 187.365 108.588 186.744 109.58 186.356C110.582 185.969 111.699 185.775 112.929 185.775C113.92 185.775 114.832 185.901 115.664 186.151C116.507 186.391 117.259 186.772 117.919 187.296C118.592 187.82 119.161 188.504 119.628 189.347C120.107 190.179 120.472 191.187 120.722 192.372C120.973 193.546 121.098 194.913 121.098 196.474ZM116.979 201.122V195.858C116.979 194.867 116.923 193.996 116.809 193.244C116.695 192.48 116.524 191.837 116.296 191.312C116.079 190.777 115.806 190.344 115.476 190.014C115.145 189.672 114.769 189.427 114.348 189.279C113.926 189.119 113.453 189.04 112.929 189.04C112.291 189.04 111.722 189.165 111.22 189.416C110.719 189.655 110.297 190.042 109.956 190.578C109.614 191.113 109.352 191.819 109.169 192.697C108.999 193.563 108.913 194.617 108.913 195.858V201.122C108.913 202.125 108.97 203.008 109.084 203.771C109.198 204.534 109.369 205.189 109.597 205.736C109.825 206.272 110.098 206.716 110.417 207.069C110.747 207.411 111.123 207.662 111.545 207.821C111.978 207.981 112.451 208.061 112.963 208.061C113.613 208.061 114.188 207.935 114.689 207.685C115.191 207.434 115.612 207.035 115.954 206.488C116.296 205.93 116.552 205.207 116.723 204.318C116.894 203.429 116.979 202.364 116.979 201.122ZM125.183 208.949C125.183 208.311 125.399 207.776 125.832 207.343C126.265 206.898 126.852 206.676 127.592 206.676C128.344 206.676 128.931 206.898 129.353 207.343C129.785 207.776 130.002 208.311 130.002 208.949C130.002 209.587 129.785 210.123 129.353 210.556C128.931 210.989 128.344 211.205 127.592 211.205C126.852 211.205 126.265 210.989 125.832 210.556C125.399 210.123 125.183 209.587 125.183 208.949ZM146.955 185.963H147.468V189.33H147.177C145.708 189.33 144.437 189.558 143.366 190.014C142.307 190.469 141.435 191.096 140.751 191.894C140.068 192.691 139.555 193.625 139.213 194.696C138.883 195.756 138.718 196.884 138.718 198.08V201.994C138.718 202.985 138.826 203.862 139.042 204.625C139.259 205.377 139.561 206.01 139.948 206.522C140.347 207.024 140.803 207.405 141.315 207.667C141.828 207.93 142.381 208.061 142.973 208.061C143.588 208.061 144.147 207.935 144.648 207.685C145.149 207.423 145.576 207.064 145.93 206.608C146.283 206.152 146.551 205.611 146.733 204.984C146.915 204.358 147.006 203.674 147.006 202.934C147.006 202.227 146.915 201.566 146.733 200.951C146.562 200.325 146.306 199.778 145.964 199.311C145.622 198.832 145.195 198.462 144.682 198.2C144.181 197.926 143.6 197.79 142.939 197.79C142.119 197.79 141.372 197.983 140.7 198.371C140.039 198.758 139.504 199.265 139.094 199.892C138.695 200.507 138.479 201.162 138.444 201.857L136.872 201.344C136.963 200.285 137.197 199.333 137.573 198.49C137.96 197.647 138.467 196.929 139.094 196.337C139.72 195.744 140.444 195.294 141.264 194.987C142.096 194.668 143.007 194.508 143.999 194.508C145.206 194.508 146.254 194.736 147.143 195.192C148.032 195.648 148.767 196.269 149.348 197.055C149.94 197.829 150.379 198.718 150.664 199.721C150.96 200.712 151.108 201.749 151.108 202.831C151.108 204.027 150.926 205.144 150.561 206.181C150.196 207.206 149.661 208.106 148.955 208.881C148.26 209.656 147.411 210.259 146.408 210.692C145.417 211.125 144.289 211.342 143.024 211.342C141.691 211.342 140.501 211.085 139.453 210.573C138.416 210.06 137.533 209.354 136.804 208.454C136.086 207.554 135.539 206.517 135.163 205.343C134.787 204.17 134.599 202.928 134.599 201.618V199.909C134.599 198.017 134.838 196.234 135.317 194.56C135.795 192.873 136.53 191.387 137.521 190.099C138.524 188.812 139.806 187.803 141.367 187.074C142.928 186.334 144.79 185.963 146.955 185.963ZM170.625 196.474V200.541C170.625 202.489 170.431 204.153 170.043 205.531C169.667 206.898 169.121 208.009 168.403 208.864C167.685 209.718 166.825 210.345 165.822 210.744C164.831 211.142 163.72 211.342 162.49 211.342C161.51 211.342 160.598 211.216 159.755 210.966C158.924 210.715 158.172 210.322 157.5 209.787C156.827 209.251 156.252 208.562 155.773 207.719C155.306 206.864 154.942 205.845 154.68 204.66C154.429 203.475 154.304 202.102 154.304 200.541V196.474C154.304 194.514 154.497 192.862 154.885 191.518C155.272 190.162 155.825 189.062 156.542 188.219C157.26 187.365 158.115 186.744 159.106 186.356C160.109 185.969 161.225 185.775 162.456 185.775C163.447 185.775 164.358 185.901 165.19 186.151C166.033 186.391 166.785 186.772 167.446 187.296C168.118 187.82 168.688 188.504 169.155 189.347C169.633 190.179 169.998 191.187 170.249 192.372C170.499 193.546 170.625 194.913 170.625 196.474ZM166.506 201.122V195.858C166.506 194.867 166.449 193.996 166.335 193.244C166.221 192.48 166.05 191.837 165.822 191.312C165.606 190.777 165.332 190.344 165.002 190.014C164.672 189.672 164.296 189.427 163.874 189.279C163.452 189.119 162.98 189.04 162.456 189.04C161.818 189.04 161.248 189.165 160.747 189.416C160.245 189.655 159.824 190.042 159.482 190.578C159.14 191.113 158.878 191.819 158.696 192.697C158.525 193.563 158.439 194.617 158.439 195.858V201.122C158.439 202.125 158.496 203.008 158.61 203.771C158.724 204.534 158.895 205.189 159.123 205.736C159.351 206.272 159.624 206.716 159.943 207.069C160.274 207.411 160.65 207.662 161.071 207.821C161.504 207.981 161.977 208.061 162.49 208.061C163.139 208.061 163.715 207.935 164.216 207.685C164.717 207.434 165.139 207.035 165.48 206.488C165.822 205.93 166.079 205.207 166.25 204.318C166.42 203.429 166.506 202.364 166.506 201.122ZM177.614 207.753H177.956C179.528 207.753 180.839 207.548 181.887 207.138C182.946 206.716 183.789 206.135 184.416 205.395C185.043 204.654 185.493 203.782 185.766 202.78C186.04 201.777 186.176 200.689 186.176 199.516V195.226C186.176 194.212 186.068 193.323 185.852 192.56C185.646 191.785 185.35 191.142 184.963 190.629C184.587 190.105 184.148 189.712 183.647 189.45C183.157 189.188 182.627 189.057 182.058 189.057C181.431 189.057 180.867 189.199 180.366 189.484C179.876 189.757 179.46 190.139 179.118 190.629C178.788 191.107 178.531 191.671 178.349 192.321C178.178 192.959 178.093 193.642 178.093 194.372C178.093 195.055 178.173 195.716 178.332 196.354C178.503 196.981 178.754 197.539 179.084 198.029C179.414 198.519 179.83 198.906 180.332 199.191C180.833 199.476 181.42 199.618 182.092 199.618C182.73 199.618 183.317 199.499 183.852 199.259C184.388 199.009 184.855 198.673 185.253 198.251C185.652 197.829 185.965 197.357 186.193 196.833C186.421 196.308 186.547 195.773 186.569 195.226L188.142 195.705C188.142 196.57 187.959 197.425 187.595 198.268C187.242 199.1 186.746 199.863 186.108 200.558C185.481 201.242 184.746 201.789 183.903 202.199C183.072 202.609 182.166 202.814 181.186 202.814C180.001 202.814 178.953 202.592 178.042 202.147C177.141 201.692 176.389 201.076 175.786 200.302C175.193 199.527 174.749 198.638 174.453 197.636C174.156 196.633 174.008 195.579 174.008 194.474C174.008 193.278 174.191 192.156 174.555 191.107C174.92 190.059 175.45 189.136 176.145 188.339C176.84 187.53 177.683 186.903 178.674 186.459C179.676 186.003 180.81 185.775 182.075 185.775C183.419 185.775 184.598 186.037 185.612 186.562C186.626 187.086 187.481 187.809 188.176 188.732C188.871 189.655 189.395 190.726 189.748 191.945C190.101 193.164 190.278 194.474 190.278 195.875V197.328C190.278 198.798 190.147 200.216 189.885 201.583C189.623 202.939 189.195 204.198 188.603 205.36C188.022 206.511 187.253 207.525 186.296 208.402C185.35 209.268 184.188 209.946 182.81 210.436C181.442 210.915 179.836 211.154 177.99 211.154H177.614V207.753ZM210.461 204.215C210.461 205.765 210.102 207.069 209.384 208.129C208.667 209.188 207.687 209.992 206.445 210.539C205.214 211.074 203.824 211.342 202.275 211.342C200.725 211.342 199.33 211.074 198.088 210.539C196.846 209.992 195.866 209.188 195.148 208.129C194.431 207.069 194.072 205.765 194.072 204.215C194.072 203.19 194.271 202.261 194.67 201.43C195.069 200.587 195.633 199.863 196.362 199.259C197.102 198.644 197.968 198.171 198.959 197.841C199.962 197.51 201.056 197.345 202.241 197.345C203.813 197.345 205.22 197.636 206.462 198.217C207.704 198.798 208.678 199.601 209.384 200.626C210.102 201.652 210.461 202.848 210.461 204.215ZM206.325 204.01C206.325 203.179 206.154 202.449 205.812 201.823C205.471 201.196 204.992 200.712 204.377 200.37C203.762 200.028 203.05 199.857 202.241 199.857C201.42 199.857 200.708 200.028 200.104 200.37C199.501 200.712 199.028 201.196 198.686 201.823C198.356 202.449 198.19 203.179 198.19 204.01C198.19 204.853 198.356 205.583 198.686 206.198C199.016 206.802 199.489 207.263 200.104 207.582C200.72 207.901 201.443 208.061 202.275 208.061C203.107 208.061 203.824 207.901 204.428 207.582C205.032 207.263 205.499 206.802 205.83 206.198C206.16 205.583 206.325 204.853 206.325 204.01ZM209.897 192.663C209.897 193.904 209.567 195.01 208.906 195.978C208.256 196.946 207.356 197.71 206.206 198.268C205.055 198.815 203.745 199.088 202.275 199.088C200.794 199.088 199.472 198.815 198.31 198.268C197.159 197.71 196.254 196.946 195.593 195.978C194.943 195.01 194.619 193.904 194.619 192.663C194.619 191.181 194.943 189.934 195.593 188.92C196.254 187.895 197.159 187.114 198.31 186.579C199.461 186.043 200.777 185.775 202.258 185.775C203.739 185.775 205.055 186.043 206.206 186.579C207.356 187.114 208.256 187.895 208.906 188.92C209.567 189.934 209.897 191.181 209.897 192.663ZM205.778 192.799C205.778 192.059 205.63 191.409 205.334 190.851C205.049 190.281 204.645 189.837 204.121 189.518C203.597 189.199 202.976 189.04 202.258 189.04C201.54 189.04 200.919 189.193 200.395 189.501C199.871 189.809 199.466 190.242 199.182 190.8C198.897 191.358 198.754 192.025 198.754 192.799C198.754 193.563 198.897 194.229 199.182 194.799C199.466 195.357 199.871 195.796 200.395 196.115C200.931 196.434 201.557 196.593 202.275 196.593C202.993 196.593 203.614 196.434 204.138 196.115C204.662 195.796 205.066 195.357 205.351 194.799C205.636 194.229 205.778 193.563 205.778 192.799ZM217.399 207.753H217.741C219.313 207.753 220.624 207.548 221.672 207.138C222.731 206.716 223.575 206.135 224.201 205.395C224.828 204.654 225.278 203.782 225.551 202.78C225.825 201.777 225.961 200.689 225.961 199.516V195.226C225.961 194.212 225.853 193.323 225.637 192.56C225.432 191.785 225.135 191.142 224.748 190.629C224.372 190.105 223.933 189.712 223.432 189.45C222.942 189.188 222.412 189.057 221.843 189.057C221.216 189.057 220.652 189.199 220.151 189.484C219.661 189.757 219.245 190.139 218.903 190.629C218.573 191.107 218.317 191.671 218.134 192.321C217.963 192.959 217.878 193.642 217.878 194.372C217.878 195.055 217.958 195.716 218.117 196.354C218.288 196.981 218.539 197.539 218.869 198.029C219.2 198.519 219.615 198.906 220.117 199.191C220.618 199.476 221.205 199.618 221.877 199.618C222.515 199.618 223.102 199.499 223.637 199.259C224.173 199.009 224.64 198.673 225.039 198.251C225.437 197.829 225.751 197.357 225.979 196.833C226.206 196.308 226.332 195.773 226.354 195.226L227.927 195.705C227.927 196.57 227.744 197.425 227.38 198.268C227.027 199.1 226.531 199.863 225.893 200.558C225.266 201.242 224.532 201.789 223.688 202.199C222.857 202.609 221.951 202.814 220.971 202.814C219.786 202.814 218.738 202.592 217.827 202.147C216.927 201.692 216.175 201.076 215.571 200.302C214.978 199.527 214.534 198.638 214.238 197.636C213.942 196.633 213.793 195.579 213.793 194.474C213.793 193.278 213.976 192.156 214.34 191.107C214.705 190.059 215.235 189.136 215.93 188.339C216.625 187.53 217.468 186.903 218.459 186.459C219.462 186.003 220.595 185.775 221.86 185.775C223.204 185.775 224.383 186.037 225.397 186.562C226.411 187.086 227.266 187.809 227.961 188.732C228.656 189.655 229.18 190.726 229.533 191.945C229.886 193.164 230.063 194.474 230.063 195.875V197.328C230.063 198.798 229.932 200.216 229.67 201.583C229.408 202.939 228.981 204.198 228.388 205.36C227.807 206.511 227.038 207.525 226.081 208.402C225.135 209.268 223.973 209.946 222.595 210.436C221.228 210.915 219.621 211.154 217.775 211.154H217.399V207.753ZM250.246 204.215C250.246 205.765 249.887 207.069 249.169 208.129C248.452 209.188 247.472 209.992 246.23 210.539C245 211.074 243.61 211.342 242.06 211.342C240.511 211.342 239.115 211.074 237.873 210.539C236.631 209.992 235.651 209.188 234.934 208.129C234.216 207.069 233.857 205.765 233.857 204.215C233.857 203.19 234.056 202.261 234.455 201.43C234.854 200.587 235.418 199.863 236.147 199.259C236.888 198.644 237.753 198.171 238.745 197.841C239.747 197.51 240.841 197.345 242.026 197.345C243.598 197.345 245.005 197.636 246.247 198.217C247.489 198.798 248.463 199.601 249.169 200.626C249.887 201.652 250.246 202.848 250.246 204.215ZM246.11 204.01C246.11 203.179 245.939 202.449 245.598 201.823C245.256 201.196 244.777 200.712 244.162 200.37C243.547 200.028 242.835 199.857 242.026 199.857C241.206 199.857 240.493 200.028 239.89 200.37C239.286 200.712 238.813 201.196 238.471 201.823C238.141 202.449 237.976 203.179 237.976 204.01C237.976 204.853 238.141 205.583 238.471 206.198C238.802 206.802 239.274 207.263 239.89 207.582C240.505 207.901 241.228 208.061 242.06 208.061C242.892 208.061 243.61 207.901 244.213 207.582C244.817 207.263 245.284 206.802 245.615 206.198C245.945 205.583 246.11 204.853 246.11 204.01ZM249.682 192.663C249.682 193.904 249.352 195.01 248.691 195.978C248.042 196.946 247.141 197.71 245.991 198.268C244.84 198.815 243.53 199.088 242.06 199.088C240.579 199.088 239.257 198.815 238.095 198.268C236.944 197.71 236.039 196.946 235.378 195.978C234.729 195.01 234.404 193.904 234.404 192.663C234.404 191.181 234.729 189.934 235.378 188.92C236.039 187.895 236.944 187.114 238.095 186.579C239.246 186.043 240.562 185.775 242.043 185.775C243.524 185.775 244.84 186.043 245.991 186.579C247.141 187.114 248.042 187.895 248.691 188.92C249.352 189.934 249.682 191.181 249.682 192.663ZM245.563 192.799C245.563 192.059 245.415 191.409 245.119 190.851C244.834 190.281 244.43 189.837 243.906 189.518C243.382 189.199 242.761 189.04 242.043 189.04C241.325 189.04 240.704 189.193 240.18 189.501C239.656 189.809 239.252 190.242 238.967 190.8C238.682 191.358 238.54 192.025 238.54 192.799C238.54 193.563 238.682 194.229 238.967 194.799C239.252 195.357 239.656 195.796 240.18 196.115C240.716 196.434 241.342 196.593 242.06 196.593C242.778 196.593 243.399 196.434 243.923 196.115C244.447 195.796 244.851 195.357 245.136 194.799C245.421 194.229 245.563 193.563 245.563 192.799Z" fill="white"/>
<path d="M47.6943 121.253C47.6943 121.034 47.6602 120.838 47.5918 120.667C47.5283 120.497 47.4136 120.34 47.2476 120.199C47.0815 120.057 46.8472 119.92 46.5444 119.789C46.2466 119.652 45.8657 119.513 45.4019 119.371C44.894 119.215 44.4253 119.042 43.9956 118.851C43.5708 118.656 43.1997 118.431 42.8823 118.177C42.5649 117.918 42.3184 117.623 42.1426 117.291C41.9668 116.954 41.8789 116.566 41.8789 116.126C41.8789 115.692 41.9692 115.296 42.1499 114.94C42.3354 114.583 42.5967 114.276 42.9336 114.017C43.2754 113.753 43.6782 113.551 44.1421 113.409C44.606 113.263 45.1187 113.189 45.6802 113.189C46.4712 113.189 47.1523 113.336 47.7236 113.629C48.2998 113.922 48.7417 114.315 49.0493 114.808C49.3618 115.301 49.5181 115.846 49.5181 116.441H47.6943C47.6943 116.09 47.6187 115.78 47.4673 115.511C47.3208 115.238 47.0962 115.023 46.7935 114.867C46.4956 114.71 46.1172 114.632 45.6582 114.632C45.2236 114.632 44.8623 114.698 44.5742 114.83C44.2861 114.962 44.0713 115.14 43.9297 115.365C43.7881 115.589 43.7173 115.843 43.7173 116.126C43.7173 116.327 43.7637 116.51 43.8564 116.676C43.9492 116.837 44.0908 116.988 44.2812 117.13C44.4717 117.267 44.7109 117.396 44.999 117.518C45.2871 117.64 45.6265 117.757 46.0171 117.87C46.6079 118.045 47.123 118.241 47.5625 118.456C48.002 118.666 48.3682 118.905 48.6611 119.173C48.9541 119.442 49.1738 119.747 49.3203 120.089C49.4668 120.426 49.54 120.809 49.54 121.239C49.54 121.688 49.4497 122.093 49.269 122.455C49.0884 122.811 48.8296 123.116 48.4927 123.37C48.1606 123.619 47.7603 123.812 47.2915 123.949C46.8276 124.081 46.3101 124.146 45.7388 124.146C45.2261 124.146 44.7207 124.078 44.2227 123.941C43.7295 123.805 43.2803 123.597 42.875 123.319C42.4697 123.036 42.1475 122.684 41.9082 122.264C41.6689 121.839 41.5493 121.344 41.5493 120.777H43.3877C43.3877 121.124 43.4463 121.419 43.5635 121.664C43.6855 121.908 43.854 122.108 44.0688 122.264C44.2837 122.416 44.5327 122.528 44.8159 122.601C45.104 122.674 45.4116 122.711 45.7388 122.711C46.1685 122.711 46.5273 122.65 46.8154 122.528C47.1084 122.406 47.3281 122.235 47.4746 122.015C47.6211 121.795 47.6943 121.542 47.6943 121.253ZM54.4839 124.146C53.8979 124.146 53.3682 124.051 52.8945 123.861C52.4258 123.666 52.0254 123.395 51.6934 123.048C51.3662 122.701 51.1147 122.293 50.939 121.825C50.7632 121.356 50.6753 120.851 50.6753 120.309V120.016C50.6753 119.396 50.7656 118.834 50.9463 118.331C51.127 117.828 51.3784 117.398 51.7007 117.042C52.0229 116.681 52.4038 116.405 52.8433 116.214C53.2827 116.024 53.7588 115.929 54.2715 115.929C54.8379 115.929 55.3335 116.024 55.7583 116.214C56.1831 116.405 56.5347 116.673 56.813 117.02C57.0962 117.362 57.3062 117.77 57.4429 118.243C57.5845 118.717 57.6553 119.239 57.6553 119.811V120.565H51.5322V119.298H55.9121V119.159C55.9023 118.841 55.8389 118.543 55.7217 118.265C55.6094 117.987 55.436 117.762 55.2017 117.591C54.9673 117.42 54.6548 117.335 54.2642 117.335C53.9712 117.335 53.71 117.398 53.4805 117.525C53.2559 117.647 53.0679 117.826 52.9165 118.06C52.7651 118.294 52.6479 118.578 52.5649 118.91C52.4868 119.237 52.4478 119.605 52.4478 120.016V120.309C52.4478 120.655 52.4941 120.978 52.5869 121.275C52.6846 121.568 52.8262 121.825 53.0117 122.044C53.1973 122.264 53.4219 122.438 53.6855 122.564C53.9492 122.687 54.2495 122.748 54.5864 122.748C55.0112 122.748 55.3896 122.662 55.7217 122.491C56.0537 122.32 56.3418 122.079 56.5859 121.766L57.5161 122.667C57.3452 122.916 57.123 123.155 56.8496 123.385C56.5762 123.609 56.2417 123.792 55.8462 123.934C55.4556 124.076 55.0015 124.146 54.4839 124.146ZM60.9219 112.75V124H59.1494V112.75H60.9219ZM64.7451 112.75V124H62.9727V112.75H64.7451Z" fill="#B0AFB0"/>
<path d="M46.083 200.181H43.3657L43.3511 198.84H45.7241C46.1245 198.84 46.4639 198.782 46.7422 198.665C47.0254 198.542 47.2402 198.369 47.3867 198.145C47.5332 197.915 47.6064 197.639 47.6064 197.317C47.6064 196.96 47.5381 196.67 47.4014 196.445C47.2646 196.221 47.0547 196.057 46.7715 195.955C46.4932 195.852 46.1367 195.801 45.7021 195.801H43.9224V205H42.084V194.336H45.7021C46.2881 194.336 46.8105 194.392 47.2695 194.504C47.7334 194.617 48.1265 194.792 48.4487 195.032C48.7759 195.266 49.0225 195.564 49.1885 195.925C49.3594 196.287 49.4448 196.716 49.4448 197.214C49.4448 197.654 49.3398 198.057 49.1299 198.423C48.9199 198.784 48.6099 199.08 48.1997 199.309C47.7896 199.539 47.2793 199.675 46.6689 199.719L46.083 200.181ZM46.0024 205H42.7871L43.6147 203.542H46.0024C46.4175 203.542 46.7642 203.474 47.0425 203.337C47.3208 203.196 47.5283 203.003 47.665 202.759C47.8066 202.51 47.8774 202.219 47.8774 201.887C47.8774 201.541 47.8164 201.24 47.6943 200.986C47.5723 200.728 47.3794 200.53 47.1157 200.393C46.8521 200.251 46.5078 200.181 46.083 200.181H44.0176L44.0322 198.84H46.7202L47.1377 199.346C47.7236 199.365 48.2046 199.495 48.5806 199.734C48.9614 199.973 49.2446 200.283 49.4302 200.664C49.6157 201.045 49.7085 201.455 49.7085 201.895C49.7085 202.573 49.5596 203.142 49.2617 203.601C48.9688 204.06 48.5464 204.409 47.9946 204.648C47.4429 204.883 46.7788 205 46.0024 205ZM56.1538 203.132V197.075H57.9263V205H56.2563L56.1538 203.132ZM56.4028 201.484L56.9961 201.47C56.9961 202.002 56.9375 202.493 56.8203 202.942C56.7031 203.386 56.5225 203.774 56.2783 204.106C56.0342 204.434 55.7217 204.69 55.3408 204.875C54.96 205.056 54.5034 205.146 53.9712 205.146C53.5854 205.146 53.2314 205.09 52.9092 204.978C52.5869 204.866 52.3086 204.692 52.0742 204.458C51.8447 204.224 51.6665 203.918 51.5396 203.542C51.4126 203.167 51.3491 202.717 51.3491 202.195V197.075H53.1143V202.209C53.1143 202.498 53.1484 202.739 53.2168 202.935C53.2852 203.125 53.3779 203.279 53.4951 203.396C53.6123 203.513 53.749 203.596 53.9053 203.645C54.0615 203.694 54.2275 203.718 54.4033 203.718C54.9062 203.718 55.3018 203.621 55.5898 203.425C55.8828 203.225 56.0903 202.957 56.2124 202.62C56.3394 202.283 56.4028 201.904 56.4028 201.484ZM62.0352 204.136L64.1885 197.075H66.0781L62.8994 206.208C62.8262 206.404 62.731 206.616 62.6138 206.846C62.4966 207.075 62.3428 207.292 62.1523 207.498C61.9668 207.708 61.7349 207.876 61.4565 208.003C61.1782 208.135 60.8413 208.201 60.4458 208.201C60.2896 208.201 60.1382 208.186 59.9917 208.157C59.8501 208.132 59.7158 208.105 59.5889 208.076L59.5815 206.729C59.6304 206.733 59.689 206.738 59.7573 206.743C59.8306 206.748 59.8892 206.75 59.9331 206.75C60.2261 206.75 60.4702 206.714 60.6655 206.641C60.8608 206.572 61.0195 206.46 61.1416 206.304C61.2686 206.147 61.376 205.938 61.4639 205.674L62.0352 204.136ZM60.8193 197.075L62.7017 203.008L63.0166 204.868L61.7935 205.183L58.915 197.075H60.8193Z" fill="#B0AFB0"/>
<path d="M46.625 286.299V297H44.8599V288.394L42.2451 289.28V287.823L46.4126 286.299H46.625ZM58.3438 292.181H55.6265L55.6118 290.84H57.9849C58.3853 290.84 58.7246 290.782 59.0029 290.665C59.2861 290.542 59.501 290.369 59.6475 290.145C59.7939 289.915 59.8672 289.639 59.8672 289.317C59.8672 288.96 59.7988 288.67 59.6621 288.445C59.5254 288.221 59.3154 288.057 59.0322 287.955C58.7539 287.852 58.3975 287.801 57.9629 287.801H56.1831V297H54.3447V286.336H57.9629C58.5488 286.336 59.0713 286.392 59.5303 286.504C59.9941 286.617 60.3872 286.792 60.7095 287.032C61.0366 287.266 61.2832 287.564 61.4492 287.925C61.6201 288.287 61.7056 288.716 61.7056 289.214C61.7056 289.654 61.6006 290.057 61.3906 290.423C61.1807 290.784 60.8706 291.08 60.4604 291.309C60.0503 291.539 59.54 291.675 58.9297 291.719L58.3438 292.181ZM58.2632 297H55.0479L55.8755 295.542H58.2632C58.6782 295.542 59.0249 295.474 59.3032 295.337C59.5815 295.196 59.7891 295.003 59.9258 294.759C60.0674 294.51 60.1382 294.219 60.1382 293.887C60.1382 293.541 60.0771 293.24 59.9551 292.986C59.833 292.728 59.6401 292.53 59.3765 292.393C59.1128 292.251 58.7686 292.181 58.3438 292.181H56.2783L56.293 290.84H58.981L59.3984 291.346C59.9844 291.365 60.4653 291.495 60.8413 291.734C61.2222 291.973 61.5054 292.283 61.6909 292.664C61.8765 293.045 61.9692 293.455 61.9692 293.895C61.9692 294.573 61.8203 295.142 61.5225 295.601C61.2295 296.06 60.8071 296.409 60.2554 296.648C59.7036 296.883 59.0396 297 58.2632 297ZM68.0044 286.336V297H66.1807V286.336H68.0044ZM71.3516 286.336V287.801H62.8628V286.336H71.3516ZM78.8516 293.528H80.6826C80.624 294.227 80.4287 294.849 80.0967 295.396C79.7646 295.938 79.2983 296.365 78.6978 296.678C78.0972 296.99 77.3672 297.146 76.5078 297.146C75.8486 297.146 75.2554 297.029 74.728 296.795C74.2007 296.556 73.749 296.219 73.373 295.784C72.9971 295.345 72.709 294.815 72.5088 294.195C72.3135 293.575 72.2158 292.881 72.2158 292.115V291.229C72.2158 290.462 72.3159 289.769 72.5161 289.148C72.7212 288.528 73.0142 287.999 73.395 287.559C73.7759 287.115 74.2324 286.775 74.7646 286.541C75.3018 286.307 75.9048 286.189 76.5737 286.189C77.4233 286.189 78.1411 286.346 78.7271 286.658C79.313 286.971 79.7671 287.403 80.0894 287.955C80.4165 288.506 80.6167 289.139 80.6899 289.852H78.8589C78.8101 289.393 78.7026 289 78.5366 288.672C78.3755 288.345 78.1362 288.096 77.8188 287.925C77.5015 287.75 77.0864 287.662 76.5737 287.662C76.1538 287.662 75.7876 287.74 75.4751 287.896C75.1626 288.052 74.9014 288.282 74.6914 288.584C74.4814 288.887 74.3228 289.261 74.2153 289.705C74.1128 290.145 74.0615 290.647 74.0615 291.214V292.115C74.0615 292.652 74.1079 293.14 74.2007 293.58C74.2983 294.014 74.4448 294.388 74.6401 294.7C74.8403 295.013 75.0942 295.254 75.4019 295.425C75.7095 295.596 76.0781 295.682 76.5078 295.682C77.0303 295.682 77.4526 295.599 77.7749 295.433C78.1021 295.267 78.3486 295.025 78.5146 294.708C78.6855 294.385 78.7979 293.992 78.8516 293.528ZM92.4087 289.837V291.287H86.0513V289.837H92.4087ZM92.4087 292.942V294.393H86.0513V292.942H92.4087ZM104.955 294.092C104.955 294.756 104.801 295.315 104.494 295.77C104.186 296.224 103.766 296.568 103.234 296.802C102.707 297.032 102.111 297.146 101.447 297.146C100.783 297.146 100.185 297.032 99.6523 296.802C99.1201 296.568 98.7002 296.224 98.3926 295.77C98.085 295.315 97.9312 294.756 97.9312 294.092C97.9312 293.653 98.0166 293.255 98.1875 292.898C98.3584 292.537 98.6001 292.227 98.9126 291.968C99.23 291.705 99.6011 291.502 100.026 291.36C100.456 291.219 100.924 291.148 101.432 291.148C102.106 291.148 102.709 291.272 103.241 291.521C103.773 291.771 104.191 292.115 104.494 292.554C104.801 292.994 104.955 293.506 104.955 294.092ZM103.183 294.004C103.183 293.648 103.109 293.335 102.963 293.067C102.816 292.798 102.611 292.591 102.348 292.444C102.084 292.298 101.779 292.225 101.432 292.225C101.081 292.225 100.775 292.298 100.517 292.444C100.258 292.591 100.055 292.798 99.9087 293.067C99.7671 293.335 99.6963 293.648 99.6963 294.004C99.6963 294.366 99.7671 294.678 99.9087 294.942C100.05 295.201 100.253 295.398 100.517 295.535C100.78 295.672 101.09 295.74 101.447 295.74C101.803 295.74 102.111 295.672 102.37 295.535C102.628 295.398 102.829 295.201 102.97 294.942C103.112 294.678 103.183 294.366 103.183 294.004ZM104.713 289.141C104.713 289.673 104.572 290.147 104.289 290.562C104.01 290.977 103.625 291.304 103.131 291.543C102.638 291.778 102.077 291.895 101.447 291.895C100.812 291.895 100.246 291.778 99.7476 291.543C99.2544 291.304 98.8662 290.977 98.583 290.562C98.3047 290.147 98.1655 289.673 98.1655 289.141C98.1655 288.506 98.3047 287.972 98.583 287.537C98.8662 287.098 99.2544 286.763 99.7476 286.534C100.241 286.304 100.805 286.189 101.439 286.189C102.074 286.189 102.638 286.304 103.131 286.534C103.625 286.763 104.01 287.098 104.289 287.537C104.572 287.972 104.713 288.506 104.713 289.141ZM102.948 289.2C102.948 288.882 102.885 288.604 102.758 288.365C102.636 288.121 102.462 287.93 102.238 287.793C102.013 287.657 101.747 287.588 101.439 287.588C101.132 287.588 100.866 287.654 100.641 287.786C100.417 287.918 100.243 288.104 100.121 288.343C99.999 288.582 99.938 288.868 99.938 289.2C99.938 289.527 99.999 289.812 100.121 290.057C100.243 290.296 100.417 290.484 100.641 290.621C100.871 290.757 101.139 290.826 101.447 290.826C101.754 290.826 102.021 290.757 102.245 290.621C102.47 290.484 102.643 290.296 102.765 290.057C102.887 289.812 102.948 289.527 102.948 289.2ZM108.581 290.87H109.635C110.045 290.87 110.385 290.799 110.653 290.657C110.927 290.516 111.129 290.32 111.261 290.071C111.393 289.822 111.459 289.537 111.459 289.214C111.459 288.877 111.398 288.589 111.276 288.35C111.159 288.106 110.978 287.918 110.734 287.786C110.495 287.654 110.189 287.588 109.818 287.588C109.506 287.588 109.223 287.652 108.969 287.779C108.72 287.901 108.522 288.077 108.375 288.306C108.229 288.531 108.156 288.799 108.156 289.112H106.383C106.383 288.545 106.532 288.042 106.83 287.603C107.128 287.164 107.533 286.819 108.046 286.57C108.563 286.316 109.145 286.189 109.789 286.189C110.478 286.189 111.078 286.304 111.591 286.534C112.108 286.758 112.511 287.095 112.799 287.544C113.087 287.994 113.231 288.55 113.231 289.214C113.231 289.517 113.161 289.825 113.019 290.137C112.877 290.45 112.667 290.735 112.389 290.994C112.111 291.248 111.764 291.456 111.349 291.617C110.934 291.773 110.453 291.851 109.906 291.851H108.581V290.87ZM108.581 292.247V291.28H109.906C110.531 291.28 111.063 291.353 111.503 291.5C111.947 291.646 112.309 291.849 112.587 292.107C112.865 292.361 113.068 292.652 113.195 292.979C113.327 293.306 113.393 293.653 113.393 294.019C113.393 294.517 113.302 294.961 113.122 295.352C112.946 295.738 112.694 296.065 112.367 296.333C112.04 296.602 111.657 296.805 111.217 296.941C110.783 297.078 110.309 297.146 109.796 297.146C109.337 297.146 108.898 297.083 108.478 296.956C108.058 296.829 107.682 296.641 107.35 296.392C107.018 296.138 106.754 295.823 106.559 295.447C106.369 295.066 106.273 294.627 106.273 294.129H108.039C108.039 294.446 108.112 294.727 108.258 294.971C108.41 295.21 108.62 295.398 108.888 295.535C109.162 295.672 109.474 295.74 109.826 295.74C110.197 295.74 110.517 295.674 110.785 295.542C111.054 295.411 111.259 295.215 111.4 294.957C111.547 294.698 111.62 294.385 111.62 294.019C111.62 293.604 111.54 293.267 111.378 293.008C111.217 292.75 110.988 292.559 110.69 292.437C110.392 292.31 110.041 292.247 109.635 292.247H108.581ZM122.379 293.199V294.605H114.689L114.63 293.543L119.23 286.336H120.644L119.113 288.958L116.469 293.199H122.379ZM121.046 286.336V297H119.281V286.336H121.046ZM125.631 290.87H126.686C127.096 290.87 127.436 290.799 127.704 290.657C127.978 290.516 128.18 290.32 128.312 290.071C128.444 289.822 128.51 289.537 128.51 289.214C128.51 288.877 128.449 288.589 128.327 288.35C128.209 288.106 128.029 287.918 127.785 287.786C127.545 287.654 127.24 287.588 126.869 287.588C126.557 287.588 126.273 287.652 126.02 287.779C125.771 287.901 125.573 288.077 125.426 288.306C125.28 288.531 125.207 288.799 125.207 289.112H123.434C123.434 288.545 123.583 288.042 123.881 287.603C124.179 287.164 124.584 286.819 125.097 286.57C125.614 286.316 126.195 286.189 126.84 286.189C127.528 286.189 128.129 286.304 128.642 286.534C129.159 286.758 129.562 287.095 129.85 287.544C130.138 287.994 130.282 288.55 130.282 289.214C130.282 289.517 130.211 289.825 130.07 290.137C129.928 290.45 129.718 290.735 129.44 290.994C129.162 291.248 128.815 291.456 128.4 291.617C127.985 291.773 127.504 291.851 126.957 291.851H125.631V290.87ZM125.631 292.247V291.28H126.957C127.582 291.28 128.114 291.353 128.554 291.5C128.998 291.646 129.359 291.849 129.638 292.107C129.916 292.361 130.119 292.652 130.246 292.979C130.377 293.306 130.443 293.653 130.443 294.019C130.443 294.517 130.353 294.961 130.172 295.352C129.997 295.738 129.745 296.065 129.418 296.333C129.091 296.602 128.708 296.805 128.268 296.941C127.833 297.078 127.36 297.146 126.847 297.146C126.388 297.146 125.949 297.083 125.529 296.956C125.109 296.829 124.733 296.641 124.401 296.392C124.069 296.138 123.805 295.823 123.61 295.447C123.419 295.066 123.324 294.627 123.324 294.129H125.089C125.089 294.446 125.163 294.727 125.309 294.971C125.46 295.21 125.67 295.398 125.939 295.535C126.212 295.672 126.525 295.74 126.876 295.74C127.248 295.74 127.567 295.674 127.836 295.542C128.104 295.411 128.31 295.215 128.451 294.957C128.598 294.698 128.671 294.385 128.671 294.019C128.671 293.604 128.59 293.267 128.429 293.008C128.268 292.75 128.039 292.559 127.741 292.437C127.443 292.31 127.091 292.247 126.686 292.247H125.631ZM133.842 295.301L133.834 296.561C133.834 297.059 133.71 297.571 133.461 298.099C133.212 298.626 132.882 299.061 132.472 299.402L131.527 298.853C131.664 298.633 131.789 298.411 131.901 298.187C132.013 297.962 132.104 297.723 132.172 297.469C132.24 297.215 132.274 296.934 132.274 296.626V295.301H133.842ZM142.785 293.199V294.605H135.094L135.036 293.543L139.635 286.336H141.049L139.518 288.958L136.874 293.199H142.785ZM141.452 286.336V297H139.687V286.336H141.452ZM146.037 290.87H147.091C147.501 290.87 147.841 290.799 148.109 290.657C148.383 290.516 148.585 290.32 148.717 290.071C148.849 289.822 148.915 289.537 148.915 289.214C148.915 288.877 148.854 288.589 148.732 288.35C148.615 288.106 148.434 287.918 148.19 287.786C147.951 287.654 147.646 287.588 147.274 287.588C146.962 287.588 146.679 287.652 146.425 287.779C146.176 287.901 145.978 288.077 145.832 288.306C145.685 288.531 145.612 288.799 145.612 289.112H143.839C143.839 288.545 143.988 288.042 144.286 287.603C144.584 287.164 144.989 286.819 145.502 286.57C146.02 286.316 146.601 286.189 147.245 286.189C147.934 286.189 148.534 286.304 149.047 286.534C149.564 286.758 149.967 287.095 150.255 287.544C150.543 287.994 150.688 288.55 150.688 289.214C150.688 289.517 150.617 289.825 150.475 290.137C150.333 290.45 150.124 290.735 149.845 290.994C149.567 291.248 149.22 291.456 148.805 291.617C148.39 291.773 147.909 291.851 147.362 291.851H146.037V290.87ZM146.037 292.247V291.28H147.362C147.987 291.28 148.52 291.353 148.959 291.5C149.403 291.646 149.765 291.849 150.043 292.107C150.321 292.361 150.524 292.652 150.651 292.979C150.783 293.306 150.849 293.653 150.849 294.019C150.849 294.517 150.758 294.961 150.578 295.352C150.402 295.738 150.15 296.065 149.823 296.333C149.496 296.602 149.113 296.805 148.673 296.941C148.239 297.078 147.765 297.146 147.252 297.146C146.793 297.146 146.354 297.083 145.934 296.956C145.514 296.829 145.138 296.641 144.806 296.392C144.474 296.138 144.21 295.823 144.015 295.447C143.825 295.066 143.729 294.627 143.729 294.129H145.495C145.495 294.446 145.568 294.727 145.714 294.971C145.866 295.21 146.076 295.398 146.344 295.535C146.618 295.672 146.93 295.74 147.282 295.74C147.653 295.74 147.973 295.674 148.241 295.542C148.51 295.411 148.715 295.215 148.856 294.957C149.003 294.698 149.076 294.385 149.076 294.019C149.076 293.604 148.996 293.267 148.834 293.008C148.673 292.75 148.444 292.559 148.146 292.437C147.848 292.31 147.497 292.247 147.091 292.247H146.037ZM166.222 286.336H168.053V293.462C168.053 294.273 167.877 294.952 167.526 295.499C167.174 296.045 166.696 296.458 166.09 296.736C165.49 297.01 164.818 297.146 164.076 297.146C163.31 297.146 162.626 297.01 162.025 296.736C161.425 296.458 160.951 296.045 160.604 295.499C160.263 294.952 160.092 294.273 160.092 293.462V286.336H161.923V293.462C161.923 293.975 162.011 294.397 162.187 294.729C162.362 295.057 162.611 295.298 162.934 295.455C163.256 295.611 163.637 295.689 164.076 295.689C164.516 295.689 164.894 295.611 165.211 295.455C165.534 295.298 165.783 295.057 165.958 294.729C166.134 294.397 166.222 293.975 166.222 293.462V286.336ZM175.663 294.253C175.663 294.034 175.629 293.838 175.561 293.667C175.497 293.497 175.382 293.34 175.216 293.199C175.05 293.057 174.816 292.92 174.513 292.789C174.215 292.652 173.834 292.513 173.371 292.371C172.863 292.215 172.394 292.042 171.964 291.851C171.54 291.656 171.168 291.431 170.851 291.177C170.534 290.918 170.287 290.623 170.111 290.291C169.936 289.954 169.848 289.566 169.848 289.126C169.848 288.692 169.938 288.296 170.119 287.94C170.304 287.583 170.565 287.276 170.902 287.017C171.244 286.753 171.647 286.551 172.111 286.409C172.575 286.263 173.087 286.189 173.649 286.189C174.44 286.189 175.121 286.336 175.692 286.629C176.269 286.922 176.71 287.315 177.018 287.808C177.331 288.301 177.487 288.846 177.487 289.441H175.663C175.663 289.09 175.587 288.78 175.436 288.511C175.29 288.238 175.065 288.023 174.762 287.867C174.464 287.71 174.086 287.632 173.627 287.632C173.192 287.632 172.831 287.698 172.543 287.83C172.255 287.962 172.04 288.14 171.898 288.365C171.757 288.589 171.686 288.843 171.686 289.126C171.686 289.327 171.732 289.51 171.825 289.676C171.918 289.837 172.06 289.988 172.25 290.13C172.44 290.267 172.68 290.396 172.968 290.518C173.256 290.64 173.595 290.757 173.986 290.87C174.577 291.045 175.092 291.241 175.531 291.456C175.971 291.666 176.337 291.905 176.63 292.173C176.923 292.442 177.143 292.747 177.289 293.089C177.436 293.426 177.509 293.809 177.509 294.239C177.509 294.688 177.418 295.093 177.238 295.455C177.057 295.811 176.798 296.116 176.461 296.37C176.129 296.619 175.729 296.812 175.26 296.949C174.796 297.081 174.279 297.146 173.708 297.146C173.195 297.146 172.689 297.078 172.191 296.941C171.698 296.805 171.249 296.597 170.844 296.319C170.438 296.036 170.116 295.684 169.877 295.264C169.638 294.839 169.518 294.344 169.518 293.777H171.356C171.356 294.124 171.415 294.419 171.532 294.664C171.654 294.908 171.823 295.108 172.038 295.264C172.252 295.416 172.501 295.528 172.785 295.601C173.073 295.674 173.38 295.711 173.708 295.711C174.137 295.711 174.496 295.65 174.784 295.528C175.077 295.406 175.297 295.235 175.443 295.015C175.59 294.795 175.663 294.542 175.663 294.253ZM182.233 297H179.955L179.97 295.542H182.233C182.892 295.542 183.444 295.398 183.888 295.11C184.337 294.822 184.674 294.41 184.899 293.873C185.128 293.335 185.243 292.696 185.243 291.954V291.375C185.243 290.799 185.177 290.289 185.045 289.844C184.918 289.4 184.728 289.026 184.474 288.724C184.225 288.421 183.917 288.191 183.551 288.035C183.19 287.879 182.772 287.801 182.299 287.801H179.911V286.336H182.299C183.007 286.336 183.654 286.456 184.24 286.695C184.826 286.929 185.331 287.269 185.756 287.713C186.186 288.157 186.515 288.689 186.745 289.31C186.974 289.93 187.089 290.623 187.089 291.39V291.954C187.089 292.72 186.974 293.414 186.745 294.034C186.515 294.654 186.186 295.186 185.756 295.63C185.326 296.07 184.813 296.409 184.218 296.648C183.627 296.883 182.965 297 182.233 297ZM180.973 286.336V297H179.135V286.336H180.973Z" fill="#B0AFB0"/>
<rect x="375" y="95" width="107" height="51" rx="10" fill="#1D1923"/>
<rect x="375" y="174" width="107" height="51" rx="10" fill="#1D1923"/>
<rect x="284" y="264" width="198" height="55" rx="15" fill="#3F6EFF"/>
<path d="M315.602 295.445V297H309.562V295.445H315.602ZM310.117 285.625V297H308.156V285.625H310.117ZM314.812 290.375V291.906H309.562V290.375H314.812ZM315.562 285.625V287.188H309.562V285.625H315.562ZM318.453 288.547L320.062 291.352L321.703 288.547H323.773L321.211 292.695L323.875 297H321.805L320.086 294.078L318.367 297H316.289L318.945 292.695L316.391 288.547H318.453ZM328.359 295.656C328.667 295.656 328.943 295.596 329.188 295.477C329.438 295.352 329.638 295.18 329.789 294.961C329.945 294.742 330.031 294.49 330.047 294.203H331.82C331.81 294.75 331.648 295.247 331.336 295.695C331.023 296.143 330.609 296.5 330.094 296.766C329.578 297.026 329.008 297.156 328.383 297.156C327.737 297.156 327.174 297.047 326.695 296.828C326.216 296.604 325.818 296.297 325.5 295.906C325.182 295.516 324.943 295.065 324.781 294.555C324.625 294.044 324.547 293.497 324.547 292.914V292.641C324.547 292.057 324.625 291.51 324.781 291C324.943 290.484 325.182 290.031 325.5 289.641C325.818 289.25 326.216 288.945 326.695 288.727C327.174 288.503 327.734 288.391 328.375 288.391C329.052 288.391 329.646 288.526 330.156 288.797C330.667 289.062 331.068 289.435 331.359 289.914C331.656 290.388 331.81 290.94 331.82 291.57H330.047C330.031 291.258 329.953 290.977 329.812 290.727C329.677 290.471 329.484 290.268 329.234 290.117C328.99 289.966 328.695 289.891 328.352 289.891C327.971 289.891 327.656 289.969 327.406 290.125C327.156 290.276 326.961 290.484 326.82 290.75C326.68 291.01 326.578 291.305 326.516 291.633C326.458 291.956 326.43 292.292 326.43 292.641V292.914C326.43 293.263 326.458 293.602 326.516 293.93C326.573 294.258 326.672 294.552 326.812 294.812C326.958 295.068 327.156 295.273 327.406 295.43C327.656 295.581 327.974 295.656 328.359 295.656ZM335.125 285V297H333.25V285H335.125ZM334.797 292.461L334.188 292.453C334.193 291.87 334.273 291.331 334.43 290.836C334.591 290.341 334.815 289.911 335.102 289.547C335.393 289.177 335.742 288.893 336.148 288.695C336.555 288.492 337.005 288.391 337.5 288.391C337.917 288.391 338.292 288.448 338.625 288.562C338.964 288.677 339.255 288.862 339.5 289.117C339.745 289.367 339.93 289.695 340.055 290.102C340.185 290.503 340.25 290.992 340.25 291.57V297H338.359V291.555C338.359 291.148 338.299 290.826 338.18 290.586C338.065 290.346 337.896 290.174 337.672 290.07C337.448 289.961 337.174 289.906 336.852 289.906C336.513 289.906 336.214 289.974 335.953 290.109C335.698 290.245 335.484 290.43 335.312 290.664C335.141 290.898 335.01 291.169 334.922 291.477C334.839 291.784 334.797 292.112 334.797 292.461ZM346.922 295.305V291.273C346.922 290.971 346.867 290.711 346.758 290.492C346.648 290.273 346.482 290.104 346.258 289.984C346.039 289.865 345.763 289.805 345.43 289.805C345.122 289.805 344.857 289.857 344.633 289.961C344.409 290.065 344.234 290.206 344.109 290.383C343.984 290.56 343.922 290.76 343.922 290.984H342.047C342.047 290.651 342.128 290.328 342.289 290.016C342.451 289.703 342.685 289.424 342.992 289.18C343.299 288.935 343.667 288.742 344.094 288.602C344.521 288.461 345 288.391 345.531 288.391C346.167 288.391 346.729 288.497 347.219 288.711C347.714 288.924 348.102 289.247 348.383 289.68C348.669 290.107 348.812 290.643 348.812 291.289V295.047C348.812 295.432 348.839 295.779 348.891 296.086C348.948 296.388 349.029 296.651 349.133 296.875V297H347.203C347.115 296.797 347.044 296.539 346.992 296.227C346.945 295.909 346.922 295.602 346.922 295.305ZM347.195 291.859L347.211 293.023H345.859C345.51 293.023 345.203 293.057 344.938 293.125C344.672 293.188 344.451 293.281 344.273 293.406C344.096 293.531 343.964 293.682 343.875 293.859C343.786 294.036 343.742 294.237 343.742 294.461C343.742 294.685 343.794 294.891 343.898 295.078C344.003 295.26 344.154 295.404 344.352 295.508C344.555 295.612 344.799 295.664 345.086 295.664C345.471 295.664 345.807 295.586 346.094 295.43C346.385 295.268 346.615 295.073 346.781 294.844C346.948 294.609 347.036 294.388 347.047 294.18L347.656 295.016C347.594 295.229 347.487 295.458 347.336 295.703C347.185 295.948 346.987 296.182 346.742 296.406C346.503 296.625 346.214 296.805 345.875 296.945C345.542 297.086 345.156 297.156 344.719 297.156C344.167 297.156 343.674 297.047 343.242 296.828C342.81 296.604 342.471 296.305 342.227 295.93C341.982 295.549 341.859 295.12 341.859 294.641C341.859 294.193 341.943 293.797 342.109 293.453C342.281 293.104 342.531 292.812 342.859 292.578C343.193 292.344 343.599 292.167 344.078 292.047C344.557 291.922 345.104 291.859 345.719 291.859H347.195ZM352.648 290.352V297H350.766V288.547H352.539L352.648 290.352ZM352.312 292.461L351.703 292.453C351.708 291.854 351.792 291.305 351.953 290.805C352.12 290.305 352.349 289.875 352.641 289.516C352.938 289.156 353.292 288.88 353.703 288.688C354.115 288.49 354.573 288.391 355.078 288.391C355.484 288.391 355.852 288.448 356.18 288.562C356.513 288.672 356.797 288.852 357.031 289.102C357.271 289.352 357.453 289.677 357.578 290.078C357.703 290.474 357.766 290.961 357.766 291.539V297H355.875V291.531C355.875 291.125 355.815 290.805 355.695 290.57C355.581 290.331 355.411 290.161 355.188 290.062C354.969 289.958 354.695 289.906 354.367 289.906C354.044 289.906 353.755 289.974 353.5 290.109C353.245 290.245 353.029 290.43 352.852 290.664C352.68 290.898 352.547 291.169 352.453 291.477C352.359 291.784 352.312 292.112 352.312 292.461ZM365.102 288.547H366.812V296.766C366.812 297.526 366.651 298.172 366.328 298.703C366.005 299.234 365.555 299.638 364.977 299.914C364.398 300.195 363.729 300.336 362.969 300.336C362.646 300.336 362.286 300.289 361.891 300.195C361.5 300.102 361.12 299.951 360.75 299.742C360.385 299.539 360.081 299.271 359.836 298.938L360.719 297.828C361.021 298.188 361.354 298.451 361.719 298.617C362.083 298.784 362.466 298.867 362.867 298.867C363.299 298.867 363.667 298.786 363.969 298.625C364.276 298.469 364.513 298.237 364.68 297.93C364.846 297.622 364.93 297.247 364.93 296.805V290.461L365.102 288.547ZM359.359 292.867V292.703C359.359 292.062 359.438 291.479 359.594 290.953C359.75 290.422 359.974 289.966 360.266 289.586C360.557 289.201 360.911 288.906 361.328 288.703C361.745 288.495 362.216 288.391 362.742 288.391C363.289 288.391 363.755 288.49 364.141 288.688C364.531 288.885 364.857 289.169 365.117 289.539C365.378 289.904 365.581 290.341 365.727 290.852C365.878 291.357 365.99 291.919 366.062 292.539V293.062C365.995 293.667 365.88 294.219 365.719 294.719C365.557 295.219 365.344 295.651 365.078 296.016C364.812 296.38 364.484 296.661 364.094 296.859C363.708 297.057 363.253 297.156 362.727 297.156C362.211 297.156 361.745 297.049 361.328 296.836C360.917 296.622 360.562 296.323 360.266 295.938C359.974 295.552 359.75 295.099 359.594 294.578C359.438 294.052 359.359 293.482 359.359 292.867ZM361.242 292.703V292.867C361.242 293.253 361.279 293.612 361.352 293.945C361.43 294.279 361.547 294.573 361.703 294.828C361.865 295.078 362.068 295.276 362.312 295.422C362.562 295.562 362.857 295.633 363.195 295.633C363.638 295.633 364 295.539 364.281 295.352C364.568 295.164 364.786 294.911 364.938 294.594C365.094 294.271 365.203 293.911 365.266 293.516V292.102C365.234 291.794 365.169 291.508 365.07 291.242C364.977 290.977 364.849 290.745 364.688 290.547C364.526 290.344 364.323 290.188 364.078 290.078C363.833 289.964 363.544 289.906 363.211 289.906C362.872 289.906 362.578 289.979 362.328 290.125C362.078 290.271 361.872 290.471 361.711 290.727C361.555 290.982 361.438 291.279 361.359 291.617C361.281 291.956 361.242 292.318 361.242 292.703ZM372.492 297.156C371.867 297.156 371.302 297.055 370.797 296.852C370.297 296.643 369.87 296.354 369.516 295.984C369.167 295.615 368.898 295.18 368.711 294.68C368.523 294.18 368.43 293.641 368.43 293.062V292.75C368.43 292.089 368.526 291.49 368.719 290.953C368.911 290.417 369.18 289.958 369.523 289.578C369.867 289.193 370.273 288.898 370.742 288.695C371.211 288.492 371.719 288.391 372.266 288.391C372.87 288.391 373.398 288.492 373.852 288.695C374.305 288.898 374.68 289.185 374.977 289.555C375.279 289.919 375.503 290.354 375.648 290.859C375.799 291.365 375.875 291.922 375.875 292.531V293.336H369.344V291.984H374.016V291.836C374.005 291.497 373.938 291.18 373.812 290.883C373.693 290.586 373.508 290.346 373.258 290.164C373.008 289.982 372.674 289.891 372.258 289.891C371.945 289.891 371.667 289.958 371.422 290.094C371.182 290.224 370.982 290.414 370.82 290.664C370.659 290.914 370.534 291.216 370.445 291.57C370.362 291.919 370.32 292.312 370.32 292.75V293.062C370.32 293.432 370.37 293.776 370.469 294.094C370.573 294.406 370.724 294.68 370.922 294.914C371.12 295.148 371.359 295.333 371.641 295.469C371.922 295.599 372.242 295.664 372.602 295.664C373.055 295.664 373.458 295.573 373.812 295.391C374.167 295.208 374.474 294.951 374.734 294.617L375.727 295.578C375.544 295.844 375.307 296.099 375.016 296.344C374.724 296.583 374.367 296.779 373.945 296.93C373.529 297.081 373.044 297.156 372.492 297.156Z" fill="white"/>
<path d="M402.953 112.492H405.272V121.519C405.272 122.546 405.049 123.405 404.604 124.098C404.159 124.791 403.553 125.313 402.786 125.666C402.025 126.012 401.174 126.186 400.234 126.186C399.263 126.186 398.397 126.012 397.637 125.666C396.876 125.313 396.276 124.791 395.837 124.098C395.404 123.405 395.188 122.546 395.188 121.519V112.492H397.507V121.519C397.507 122.168 397.618 122.703 397.841 123.124C398.063 123.538 398.379 123.845 398.787 124.042C399.195 124.24 399.678 124.339 400.234 124.339C400.791 124.339 401.27 124.24 401.672 124.042C402.081 123.845 402.396 123.538 402.619 123.124C402.841 122.703 402.953 122.168 402.953 121.519V112.492ZM414.911 122.521C414.911 122.243 414.868 121.995 414.781 121.779C414.701 121.562 414.556 121.364 414.345 121.185C414.135 121.006 413.838 120.833 413.455 120.666C413.077 120.492 412.595 120.316 412.007 120.137C411.364 119.939 410.77 119.719 410.226 119.478C409.688 119.231 409.218 118.946 408.816 118.625C408.414 118.297 408.102 117.923 407.879 117.502C407.656 117.075 407.545 116.583 407.545 116.027C407.545 115.476 407.659 114.975 407.888 114.524C408.123 114.072 408.454 113.683 408.881 113.355C409.314 113.021 409.824 112.764 410.412 112.585C410.999 112.399 411.649 112.307 412.36 112.307C413.362 112.307 414.225 112.492 414.948 112.863C415.678 113.234 416.238 113.732 416.627 114.357C417.023 114.982 417.221 115.671 417.221 116.426H414.911C414.911 115.98 414.815 115.588 414.624 115.248C414.438 114.901 414.153 114.629 413.77 114.431C413.393 114.233 412.913 114.134 412.332 114.134C411.782 114.134 411.324 114.218 410.959 114.385C410.594 114.552 410.322 114.778 410.143 115.062C409.963 115.347 409.874 115.668 409.874 116.027C409.874 116.28 409.932 116.512 410.05 116.723C410.167 116.927 410.347 117.118 410.588 117.298C410.829 117.471 411.132 117.635 411.497 117.79C411.862 117.944 412.292 118.093 412.787 118.235C413.535 118.458 414.188 118.705 414.744 118.977C415.301 119.243 415.765 119.546 416.136 119.886C416.507 120.226 416.785 120.613 416.971 121.046C417.156 121.473 417.249 121.958 417.249 122.502C417.249 123.071 417.135 123.585 416.906 124.042C416.677 124.494 416.349 124.881 415.922 125.202C415.502 125.518 414.995 125.762 414.401 125.935C413.813 126.102 413.158 126.186 412.434 126.186C411.785 126.186 411.145 126.099 410.514 125.926C409.889 125.753 409.32 125.49 408.807 125.137C408.293 124.778 407.885 124.333 407.582 123.801C407.279 123.263 407.127 122.635 407.127 121.918H409.456C409.456 122.357 409.53 122.731 409.679 123.041C409.833 123.35 410.047 123.603 410.319 123.801C410.591 123.993 410.906 124.135 411.265 124.228C411.63 124.321 412.02 124.367 412.434 124.367C412.978 124.367 413.433 124.29 413.798 124.135C414.169 123.981 414.447 123.764 414.633 123.486C414.818 123.208 414.911 122.886 414.911 122.521ZM423.233 126H420.348L420.366 124.154H423.233C424.068 124.154 424.767 123.971 425.33 123.606C425.899 123.242 426.325 122.719 426.61 122.039C426.901 121.358 427.046 120.548 427.046 119.608V118.875C427.046 118.145 426.962 117.499 426.795 116.936C426.635 116.373 426.393 115.9 426.072 115.517C425.756 115.133 425.367 114.842 424.903 114.645C424.445 114.447 423.916 114.348 423.316 114.348H420.292V112.492H423.316C424.213 112.492 425.033 112.644 425.775 112.947C426.517 113.244 427.157 113.674 427.695 114.236C428.24 114.799 428.657 115.473 428.948 116.259C429.238 117.044 429.384 117.923 429.384 118.894V119.608C429.384 120.579 429.238 121.457 428.948 122.243C428.657 123.028 428.24 123.702 427.695 124.265C427.151 124.822 426.502 125.252 425.747 125.555C424.999 125.852 424.161 126 423.233 126ZM421.637 112.492V126H419.309V112.492H421.637Z" fill="white"/>
<path d="M400.438 198.896H396.997L396.978 197.198H399.984C400.491 197.198 400.921 197.124 401.273 196.975C401.632 196.82 401.904 196.601 402.09 196.316C402.275 196.026 402.368 195.676 402.368 195.268C402.368 194.817 402.282 194.449 402.108 194.164C401.935 193.88 401.669 193.672 401.311 193.542C400.958 193.413 400.507 193.348 399.956 193.348H397.702V205H395.373V191.492H399.956C400.698 191.492 401.36 191.563 401.941 191.706C402.529 191.848 403.027 192.07 403.435 192.374C403.849 192.67 404.162 193.048 404.372 193.505C404.589 193.963 404.697 194.507 404.697 195.138C404.697 195.695 404.564 196.205 404.298 196.669C404.032 197.127 403.639 197.501 403.12 197.792C402.6 198.082 401.954 198.255 401.181 198.311L400.438 198.896ZM400.336 205H396.264L397.312 203.154H400.336C400.862 203.154 401.301 203.067 401.654 202.894C402.006 202.715 402.269 202.47 402.442 202.161C402.622 201.846 402.711 201.478 402.711 201.057C402.711 200.618 402.634 200.238 402.479 199.916C402.325 199.588 402.081 199.338 401.747 199.165C401.413 198.985 400.977 198.896 400.438 198.896H397.822L397.841 197.198H401.246L401.774 197.838C402.517 197.863 403.126 198.027 403.602 198.33C404.084 198.633 404.443 199.025 404.678 199.508C404.913 199.99 405.031 200.51 405.031 201.066C405.031 201.926 404.842 202.647 404.465 203.228C404.094 203.809 403.559 204.252 402.86 204.555C402.161 204.852 401.32 205 400.336 205ZM412.675 191.492V205H410.365V191.492H412.675ZM416.915 191.492V193.348H406.163V191.492H416.915ZM426.415 200.603H428.734C428.66 201.487 428.413 202.276 427.992 202.968C427.572 203.655 426.981 204.196 426.22 204.592C425.459 204.988 424.535 205.186 423.446 205.186C422.611 205.186 421.86 205.037 421.192 204.74C420.524 204.437 419.952 204.01 419.476 203.46C418.999 202.903 418.634 202.232 418.381 201.447C418.133 200.661 418.01 199.783 418.01 198.812V197.689C418.01 196.718 418.137 195.84 418.39 195.055C418.65 194.269 419.021 193.598 419.503 193.042C419.986 192.479 420.564 192.049 421.238 191.752C421.919 191.455 422.682 191.307 423.53 191.307C424.606 191.307 425.515 191.505 426.257 191.9C427 192.296 427.575 192.844 427.983 193.542C428.397 194.241 428.651 195.042 428.744 195.945H426.424C426.362 195.364 426.226 194.866 426.016 194.452C425.812 194.037 425.509 193.722 425.107 193.505C424.705 193.283 424.179 193.171 423.53 193.171C422.998 193.171 422.534 193.27 422.138 193.468C421.742 193.666 421.411 193.957 421.146 194.34C420.88 194.724 420.679 195.197 420.542 195.76C420.413 196.316 420.348 196.953 420.348 197.671V198.812C420.348 199.492 420.406 200.111 420.524 200.667C420.648 201.218 420.833 201.691 421.081 202.087C421.334 202.483 421.656 202.789 422.045 203.005C422.435 203.222 422.902 203.33 423.446 203.33C424.108 203.33 424.643 203.225 425.051 203.015C425.466 202.804 425.778 202.498 425.988 202.096C426.205 201.688 426.347 201.19 426.415 200.603Z" fill="white"/>
<path d="M449.379 291.695H464.399" stroke="white" stroke-width="1.2" stroke-linecap="round" stroke-linejoin="round"/>
<path d="M458.695 285.991L464.4 291.695L458.695 297.4" stroke="white" stroke-width="1.2" stroke-linecap="round" stroke-linejoin="round"/>
<path d="M467.557 196.852L461.853 202.557L456.148 196.852" stroke="#3F6EFF" stroke-width="1.2" stroke-linecap="round" stroke-linejoin="round"/>
<path d="M467.557 117.852L461.853 123.557L456.148 117.852" stroke="#3F6EFF" stroke-width="1.2" stroke-linecap="round" stroke-linejoin="round"/>
</g>
<defs>
<clipPath id="clip0_202_587">
<rect width="522" height="350" fill="white"/>
</clipPath>
</defs>
</svg>
