<svg width="341" height="160" viewBox="0 0 341 160" fill="none" xmlns="http://www.w3.org/2000/svg">
<g clip-path="url(#clip0_202_607)">
<rect x="2" width="339" height="160" rx="23" fill="#241F2A"/>
<rect y="21" width="5" height="37" rx="2.5" fill="#3F6EFF" stroke="#3F6EFF"/>
<path d="M45.7017 32.4922V46H43.373V32.4922H45.7017ZM51.2124 38.4019V40.248H45.1079V38.4019H51.2124ZM51.9824 32.4922V34.3477H45.1079V32.4922H51.9824ZM55.6191 37.873V46H53.3833V35.9619H55.5171L55.6191 37.873ZM58.6899 35.897L58.6714 37.9751C58.5353 37.9504 58.3869 37.9318 58.2261 37.9194C58.0715 37.9071 57.9168 37.9009 57.7622 37.9009C57.3787 37.9009 57.0417 37.9565 56.751 38.0679C56.4603 38.173 56.216 38.3276 56.0181 38.5317C55.8263 38.7297 55.6779 38.9709 55.5728 39.2554C55.4676 39.5399 55.4058 39.8584 55.3872 40.2109L54.877 40.248C54.877 39.6172 54.9388 39.0327 55.0625 38.4946C55.1862 37.9565 55.3717 37.4834 55.6191 37.0752C55.8727 36.667 56.1882 36.3485 56.5654 36.1196C56.9489 35.8908 57.3911 35.7764 57.8921 35.7764C58.0282 35.7764 58.1735 35.7887 58.3281 35.8135C58.4889 35.8382 58.6095 35.866 58.6899 35.897ZM65.416 43.9868V39.1997C65.416 38.841 65.3511 38.5317 65.2212 38.272C65.0913 38.0122 64.8934 37.8112 64.6274 37.6689C64.3677 37.5267 64.0399 37.4556 63.644 37.4556C63.2791 37.4556 62.9637 37.5174 62.6978 37.6411C62.4318 37.7648 62.2246 37.9318 62.0762 38.1421C61.9277 38.3524 61.8535 38.5905 61.8535 38.8564H59.627C59.627 38.4606 59.7228 38.0771 59.9146 37.7061C60.1063 37.335 60.3846 37.0041 60.7495 36.7134C61.1144 36.4227 61.5505 36.1938 62.0576 36.0269C62.5648 35.8599 63.1338 35.7764 63.7646 35.7764C64.5192 35.7764 65.1872 35.9032 65.7686 36.1567C66.3561 36.4103 66.8169 36.7938 67.1509 37.3071C67.491 37.8143 67.6611 38.4513 67.6611 39.2183V43.6807C67.6611 44.1383 67.6921 44.5496 67.7539 44.9146C67.8219 45.2733 67.9178 45.5856 68.0415 45.8516V46H65.75C65.6449 45.7588 65.5614 45.4526 65.4995 45.0815C65.4438 44.7043 65.416 44.3394 65.416 43.9868ZM65.7407 39.8955L65.7593 41.2778H64.1543C63.7399 41.2778 63.375 41.318 63.0596 41.3984C62.7441 41.4727 62.4813 41.584 62.271 41.7324C62.0607 41.8809 61.903 42.0602 61.7979 42.2705C61.6927 42.4808 61.6401 42.7189 61.6401 42.9849C61.6401 43.2508 61.702 43.4951 61.8257 43.7178C61.9494 43.9342 62.1287 44.1043 62.3638 44.228C62.605 44.3517 62.8957 44.4136 63.2358 44.4136C63.6935 44.4136 64.0924 44.3208 64.4326 44.1353C64.779 43.9435 65.0511 43.7116 65.249 43.4395C65.4469 43.1611 65.5521 42.8983 65.5645 42.6509L66.2881 43.6436C66.2139 43.8971 66.0871 44.1693 65.9077 44.46C65.7284 44.7507 65.4933 45.029 65.2026 45.2949C64.9181 45.5547 64.5749 45.7681 64.1729 45.9351C63.777 46.1021 63.3193 46.1855 62.7998 46.1855C62.1442 46.1855 61.5597 46.0557 61.0464 45.7959C60.533 45.5299 60.131 45.1743 59.8403 44.729C59.5496 44.2775 59.4043 43.7673 59.4043 43.1982C59.4043 42.6663 59.5033 42.1963 59.7012 41.7881C59.9053 41.3737 60.2021 41.0273 60.5918 40.749C60.9876 40.4707 61.4701 40.2604 62.0391 40.1182C62.6081 39.9697 63.2575 39.8955 63.9873 39.8955H65.7407ZM76.0386 43.6343V35.9619H78.2837V46H76.1685L76.0386 43.6343ZM76.354 41.5469L77.1055 41.5283C77.1055 42.2025 77.0312 42.8241 76.8828 43.3931C76.7344 43.9559 76.5055 44.4476 76.1963 44.8682C75.887 45.2826 75.4912 45.6073 75.0088 45.8423C74.5264 46.0711 73.9481 46.1855 73.2739 46.1855C72.7853 46.1855 72.3369 46.1144 71.9287 45.9722C71.5205 45.8299 71.168 45.6104 70.8711 45.3135C70.5804 45.0166 70.3547 44.63 70.1938 44.1538C70.033 43.6776 69.9526 43.1086 69.9526 42.4468V35.9619H72.1885V42.4653C72.1885 42.8302 72.2318 43.1364 72.3184 43.3838C72.4049 43.625 72.5225 43.8198 72.6709 43.9683C72.8193 44.1167 72.9925 44.2218 73.1904 44.2837C73.3883 44.3455 73.5986 44.3765 73.8213 44.3765C74.4583 44.3765 74.9593 44.2528 75.3242 44.0054C75.6953 43.7518 75.9582 43.4116 76.1128 42.9849C76.2736 42.5581 76.354 42.0788 76.354 41.5469ZM82.7925 38.105V46H80.5566V35.9619H82.6626L82.7925 38.105ZM82.3936 40.6099L81.6699 40.6006C81.6761 39.8893 81.7751 39.2368 81.9668 38.6431C82.1647 38.0493 82.4368 37.5391 82.7832 37.1123C83.1357 36.6855 83.5563 36.3577 84.0449 36.1289C84.5335 35.8939 85.0778 35.7764 85.6777 35.7764C86.1602 35.7764 86.5962 35.8444 86.9858 35.9805C87.3817 36.1104 87.7188 36.3237 87.9971 36.6206C88.2816 36.9175 88.498 37.304 88.6465 37.7803C88.7949 38.2503 88.8691 38.8286 88.8691 39.5151V46H86.624V39.5059C86.624 39.0234 86.5529 38.6431 86.4106 38.3647C86.2746 38.0802 86.0736 37.8792 85.8076 37.7617C85.5479 37.638 85.2231 37.5762 84.8335 37.5762C84.45 37.5762 84.1068 37.6566 83.8037 37.8174C83.5007 37.9782 83.244 38.1978 83.0337 38.4761C82.8296 38.7544 82.6719 39.076 82.5605 39.4409C82.4492 39.8058 82.3936 40.1955 82.3936 40.6099ZM97.2744 43.9219V31.75H99.5195V46H97.4878L97.2744 43.9219ZM90.7432 41.0923V40.8975C90.7432 40.1367 90.8328 39.444 91.0122 38.8193C91.1916 38.1885 91.4513 37.6473 91.7915 37.1958C92.1317 36.7381 92.5461 36.3887 93.0347 36.1475C93.5233 35.9001 94.0737 35.7764 94.686 35.7764C95.2922 35.7764 95.8241 35.8939 96.2817 36.1289C96.7394 36.3639 97.1291 36.701 97.4507 37.1401C97.7723 37.5731 98.029 38.0926 98.2207 38.6987C98.4124 39.2987 98.5485 39.9666 98.6289 40.7026V41.3242C98.5485 42.0417 98.4124 42.6973 98.2207 43.291C98.029 43.8848 97.7723 44.3981 97.4507 44.8311C97.1291 45.264 96.7363 45.598 96.2725 45.833C95.8148 46.068 95.2798 46.1855 94.6675 46.1855C94.0614 46.1855 93.514 46.0588 93.0254 45.8052C92.543 45.5516 92.1317 45.196 91.7915 44.7383C91.4513 44.2806 91.1916 43.7425 91.0122 43.124C90.8328 42.4993 90.7432 41.8221 90.7432 41.0923ZM92.979 40.8975V41.0923C92.979 41.55 93.0192 41.9767 93.0996 42.3726C93.1862 42.7684 93.3192 43.1178 93.4985 43.4209C93.6779 43.7178 93.9098 43.9528 94.1943 44.126C94.485 44.293 94.8314 44.3765 95.2334 44.3765C95.7406 44.3765 96.158 44.2651 96.4858 44.0425C96.8136 43.8198 97.0703 43.5199 97.2559 43.1426C97.4476 42.7591 97.5775 42.3324 97.6455 41.8623V40.1831C97.6084 39.8182 97.5311 39.478 97.4136 39.1626C97.3022 38.8472 97.1507 38.5719 96.959 38.3369C96.7673 38.0957 96.5291 37.9102 96.2446 37.7803C95.9663 37.6442 95.6354 37.5762 95.252 37.5762C94.8438 37.5762 94.4974 37.6628 94.2129 37.8359C93.9284 38.0091 93.6934 38.2472 93.5078 38.5503C93.3285 38.8534 93.1955 39.2059 93.1089 39.6079C93.0223 40.0099 92.979 40.4398 92.979 40.8975ZM113.918 42.521C113.918 42.2427 113.875 41.9953 113.788 41.7788C113.708 41.5623 113.562 41.3644 113.352 41.1851C113.142 41.0057 112.845 40.8325 112.461 40.6655C112.084 40.4924 111.602 40.3161 111.014 40.1367C110.371 39.9388 109.777 39.7192 109.233 39.478C108.695 39.2306 108.225 38.9461 107.823 38.6245C107.421 38.2967 107.108 37.9225 106.886 37.502C106.663 37.0752 106.552 36.5835 106.552 36.0269C106.552 35.4764 106.666 34.9754 106.895 34.5239C107.13 34.0724 107.461 33.6828 107.888 33.355C108.321 33.021 108.831 32.7643 109.418 32.585C110.006 32.3994 110.655 32.3066 111.367 32.3066C112.369 32.3066 113.231 32.4922 113.955 32.8633C114.685 33.2344 115.245 33.7323 115.634 34.3569C116.03 34.9816 116.228 35.6712 116.228 36.4258H113.918C113.918 35.9805 113.822 35.5877 113.63 35.2476C113.445 34.9012 113.16 34.6291 112.777 34.4312C112.4 34.2332 111.92 34.1343 111.339 34.1343C110.788 34.1343 110.331 34.2178 109.966 34.3848C109.601 34.5518 109.329 34.7775 109.149 35.062C108.97 35.3465 108.88 35.6681 108.88 36.0269C108.88 36.2804 108.939 36.5124 109.057 36.7227C109.174 36.9268 109.354 37.1185 109.595 37.2979C109.836 37.471 110.139 37.6349 110.504 37.7896C110.869 37.9442 111.299 38.0926 111.793 38.2349C112.542 38.4575 113.194 38.7049 113.751 38.9771C114.308 39.243 114.771 39.5461 115.143 39.8862C115.514 40.2264 115.792 40.613 115.978 41.0459C116.163 41.4727 116.256 41.9582 116.256 42.5024C116.256 43.0715 116.141 43.5848 115.913 44.0425C115.684 44.494 115.356 44.8805 114.929 45.2021C114.509 45.5176 114.001 45.7619 113.408 45.9351C112.82 46.1021 112.165 46.1855 111.441 46.1855C110.792 46.1855 110.151 46.099 109.521 45.9258C108.896 45.7526 108.327 45.4897 107.813 45.1372C107.3 44.7785 106.892 44.3332 106.589 43.8013C106.286 43.2632 106.134 42.6354 106.134 41.918H108.463C108.463 42.3571 108.537 42.7313 108.686 43.0405C108.84 43.3498 109.054 43.6034 109.326 43.8013C109.598 43.993 109.913 44.1353 110.272 44.228C110.637 44.3208 111.027 44.3672 111.441 44.3672C111.985 44.3672 112.44 44.2899 112.805 44.1353C113.176 43.9806 113.454 43.7642 113.64 43.4858C113.825 43.2075 113.918 42.8859 113.918 42.521ZM122.193 44.4043C122.558 44.4043 122.886 44.3332 123.177 44.1909C123.474 44.0425 123.712 43.8384 123.891 43.5786C124.077 43.3188 124.179 43.0189 124.197 42.6787H126.303C126.291 43.3281 126.099 43.9188 125.728 44.4507C125.357 44.9826 124.865 45.4062 124.253 45.7217C123.641 46.0309 122.963 46.1855 122.221 46.1855C121.454 46.1855 120.786 46.0557 120.217 45.7959C119.648 45.5299 119.175 45.165 118.798 44.7012C118.421 44.2373 118.136 43.7023 117.944 43.0962C117.759 42.4901 117.666 41.8407 117.666 41.1479V40.8232C117.666 40.1305 117.759 39.4811 117.944 38.875C118.136 38.2627 118.421 37.7246 118.798 37.2607C119.175 36.7969 119.648 36.4351 120.217 36.1753C120.786 35.9093 121.451 35.7764 122.212 35.7764C123.016 35.7764 123.721 35.9372 124.327 36.2588C124.933 36.5742 125.41 37.0164 125.756 37.5854C126.108 38.1483 126.291 38.8039 126.303 39.5522H124.197C124.179 39.1812 124.086 38.8472 123.919 38.5503C123.758 38.2472 123.529 38.006 123.232 37.8267C122.942 37.6473 122.592 37.5576 122.184 37.5576C121.733 37.5576 121.358 37.6504 121.062 37.8359C120.765 38.0153 120.533 38.2627 120.366 38.5781C120.199 38.8874 120.078 39.2368 120.004 39.6265C119.936 40.0099 119.902 40.4089 119.902 40.8232V41.1479C119.902 41.5623 119.936 41.9644 120.004 42.354C120.072 42.7437 120.189 43.0931 120.356 43.4023C120.53 43.7054 120.765 43.9497 121.062 44.1353C121.358 44.3146 121.736 44.4043 122.193 44.4043ZM127.593 41.0923V40.8789C127.593 40.1553 127.698 39.4842 127.908 38.8657C128.118 38.241 128.422 37.6999 128.817 37.2422C129.219 36.7783 129.708 36.4196 130.283 36.166C130.865 35.9062 131.52 35.7764 132.25 35.7764C132.986 35.7764 133.642 35.9062 134.217 36.166C134.798 36.4196 135.29 36.7783 135.692 37.2422C136.094 37.6999 136.4 38.241 136.61 38.8657C136.821 39.4842 136.926 40.1553 136.926 40.8789V41.0923C136.926 41.8159 136.821 42.487 136.61 43.1055C136.4 43.724 136.094 44.2651 135.692 44.729C135.29 45.1867 134.801 45.5454 134.226 45.8052C133.651 46.0588 132.998 46.1855 132.269 46.1855C131.533 46.1855 130.874 46.0588 130.292 45.8052C129.717 45.5454 129.229 45.1867 128.827 44.729C128.425 44.2651 128.118 43.724 127.908 43.1055C127.698 42.487 127.593 41.8159 127.593 41.0923ZM129.829 40.8789V41.0923C129.829 41.5438 129.875 41.9705 129.968 42.3726C130.061 42.7746 130.206 43.1271 130.404 43.4302C130.602 43.7332 130.855 43.9714 131.165 44.1445C131.474 44.3177 131.842 44.4043 132.269 44.4043C132.683 44.4043 133.042 44.3177 133.345 44.1445C133.654 43.9714 133.908 43.7332 134.105 43.4302C134.303 43.1271 134.449 42.7746 134.542 42.3726C134.64 41.9705 134.69 41.5438 134.69 41.0923V40.8789C134.69 40.4336 134.64 40.013 134.542 39.6172C134.449 39.2152 134.3 38.8595 134.096 38.5503C133.898 38.241 133.645 37.9998 133.335 37.8267C133.032 37.6473 132.671 37.5576 132.25 37.5576C131.829 37.5576 131.465 37.6473 131.155 37.8267C130.852 37.9998 130.602 38.241 130.404 38.5503C130.206 38.8595 130.061 39.2152 129.968 39.6172C129.875 40.013 129.829 40.4336 129.829 40.8789ZM141.045 37.873V46H138.809V35.9619H140.943L141.045 37.873ZM144.116 35.897L144.097 37.9751C143.961 37.9504 143.813 37.9318 143.652 37.9194C143.497 37.9071 143.343 37.9009 143.188 37.9009C142.805 37.9009 142.467 37.9565 142.177 38.0679C141.886 38.173 141.642 38.3276 141.444 38.5317C141.252 38.7297 141.104 38.9709 140.999 39.2554C140.893 39.5399 140.832 39.8584 140.813 40.2109L140.303 40.248C140.303 39.6172 140.365 39.0327 140.488 38.4946C140.612 37.9565 140.798 37.4834 141.045 37.0752C141.299 36.667 141.614 36.3485 141.991 36.1196C142.375 35.8908 142.817 35.7764 143.318 35.7764C143.454 35.7764 143.599 35.7887 143.754 35.8135C143.915 35.8382 144.035 35.866 144.116 35.897ZM149.756 46.1855C149.014 46.1855 148.343 46.0649 147.743 45.8237C147.149 45.5763 146.642 45.2331 146.222 44.7939C145.807 44.3548 145.489 43.8384 145.266 43.2446C145.043 42.6509 144.932 42.0107 144.932 41.3242V40.9531C144.932 40.1676 145.047 39.4564 145.275 38.8193C145.504 38.1823 145.823 37.638 146.231 37.1865C146.639 36.7288 147.122 36.3794 147.678 36.1382C148.235 35.897 148.838 35.7764 149.487 35.7764C150.205 35.7764 150.833 35.897 151.371 36.1382C151.909 36.3794 152.354 36.7196 152.707 37.1587C153.065 37.5916 153.331 38.1081 153.504 38.708C153.684 39.3079 153.773 39.9697 153.773 40.6934V41.6489H146.018V40.0439H151.565V39.8677C151.553 39.4657 151.473 39.0884 151.324 38.7358C151.182 38.3833 150.962 38.0988 150.666 37.8823C150.369 37.6659 149.973 37.5576 149.478 37.5576C149.107 37.5576 148.776 37.638 148.485 37.7988C148.201 37.9535 147.963 38.1792 147.771 38.4761C147.579 38.7729 147.431 39.1317 147.326 39.5522C147.227 39.9666 147.177 40.4336 147.177 40.9531V41.3242C147.177 41.7633 147.236 42.1715 147.354 42.5488C147.477 42.9199 147.657 43.2446 147.892 43.5229C148.127 43.8013 148.411 44.0208 148.745 44.1816C149.079 44.3363 149.459 44.4136 149.886 44.4136C150.424 44.4136 150.904 44.3053 151.324 44.0889C151.745 43.8724 152.11 43.5662 152.419 43.1704L153.597 44.3115C153.381 44.627 153.099 44.93 152.753 45.2207C152.407 45.5052 151.983 45.7371 151.482 45.9165C150.987 46.0959 150.412 46.1855 149.756 46.1855Z" fill="white"/>
<path d="M55.0938 78.1094H55.5625V81.1875H55.2969C53.9531 81.1875 52.7917 81.3958 51.8125 81.8125C50.8438 82.2292 50.0469 82.8021 49.4219 83.5312C48.7969 84.2604 48.3281 85.1146 48.0156 86.0938C47.7135 87.0625 47.5625 88.0938 47.5625 89.1875V92.7656C47.5625 93.6719 47.6615 94.474 47.8594 95.1719C48.0573 95.8594 48.3333 96.4375 48.6875 96.9062C49.0521 97.3646 49.4688 97.7135 49.9375 97.9531C50.4062 98.1927 50.9115 98.3125 51.4531 98.3125C52.0156 98.3125 52.526 98.1979 52.9844 97.9688C53.4427 97.7292 53.8333 97.401 54.1562 96.9844C54.4792 96.5677 54.724 96.0729 54.8906 95.5C55.0573 94.9271 55.1406 94.3021 55.1406 93.625C55.1406 92.9792 55.0573 92.375 54.8906 91.8125C54.7344 91.2396 54.5 90.7396 54.1875 90.3125C53.875 89.875 53.4844 89.5365 53.0156 89.2969C52.5573 89.0469 52.026 88.9219 51.4219 88.9219C50.6719 88.9219 49.9896 89.099 49.375 89.4531C48.7708 89.8073 48.2812 90.2708 47.9062 90.8438C47.5417 91.4062 47.3438 92.0052 47.3125 92.6406L45.875 92.1719C45.9583 91.2031 46.1719 90.3333 46.5156 89.5625C46.8698 88.7917 47.3333 88.1354 47.9062 87.5938C48.4792 87.0521 49.1406 86.6406 49.8906 86.3594C50.651 86.0677 51.4844 85.9219 52.3906 85.9219C53.4948 85.9219 54.4531 86.1302 55.2656 86.5469C56.0781 86.9635 56.75 87.5312 57.2812 88.25C57.8229 88.9583 58.224 89.7708 58.4844 90.6875C58.7552 91.5938 58.8906 92.5417 58.8906 93.5312C58.8906 94.625 58.724 95.6458 58.3906 96.5938C58.0573 97.5312 57.5677 98.3542 56.9219 99.0625C56.2865 99.7708 55.5104 100.323 54.5938 100.719C53.6875 101.115 52.6562 101.312 51.5 101.312C50.2812 101.312 49.1927 101.078 48.2344 100.609C47.2865 100.141 46.4792 99.4948 45.8125 98.6719C45.1562 97.849 44.6562 96.901 44.3125 95.8281C43.9688 94.7552 43.7969 93.6198 43.7969 92.4219V90.8594C43.7969 89.1302 44.0156 87.5 44.4531 85.9688C44.8906 84.4271 45.5625 83.0677 46.4688 81.8906C47.3854 80.7135 48.5573 79.7917 49.9844 79.125C51.4115 78.4479 53.1146 78.1094 55.0938 78.1094ZM62.2812 99.125C62.2812 98.5417 62.4792 98.0521 62.875 97.6562C63.2708 97.25 63.8073 97.0469 64.4844 97.0469C65.1719 97.0469 65.7083 97.25 66.0938 97.6562C66.4896 98.0521 66.6875 98.5417 66.6875 99.125C66.6875 99.7083 66.4896 100.198 66.0938 100.594C65.7083 100.99 65.1719 101.188 64.4844 101.188C63.8073 101.188 63.2708 100.99 62.875 100.594C62.4792 100.198 62.2812 99.7083 62.2812 99.125ZM73.8438 98.0312H74.1562C75.5938 98.0312 76.7917 97.8438 77.75 97.4688C78.7188 97.0833 79.4896 96.5521 80.0625 95.875C80.6354 95.1979 81.0469 94.401 81.2969 93.4844C81.5469 92.5677 81.6719 91.5729 81.6719 90.5V86.5781C81.6719 85.651 81.5729 84.8385 81.375 84.1406C81.1875 83.4323 80.9167 82.8438 80.5625 82.375C80.2188 81.8958 79.8177 81.5365 79.3594 81.2969C78.9115 81.0573 78.4271 80.9375 77.9062 80.9375C77.3333 80.9375 76.8177 81.0677 76.3594 81.3281C75.9115 81.5781 75.5312 81.9271 75.2188 82.375C74.9167 82.8125 74.6823 83.3281 74.5156 83.9219C74.3594 84.5052 74.2812 85.1302 74.2812 85.7969C74.2812 86.4219 74.3542 87.026 74.5 87.6094C74.6562 88.1823 74.8854 88.6927 75.1875 89.1406C75.4896 89.5885 75.8698 89.9427 76.3281 90.2031C76.7865 90.4635 77.3229 90.5938 77.9375 90.5938C78.5208 90.5938 79.0573 90.4844 79.5469 90.2656C80.0365 90.0365 80.4635 89.7292 80.8281 89.3438C81.1927 88.9583 81.4792 88.526 81.6875 88.0469C81.8958 87.5677 82.0104 87.0781 82.0312 86.5781L83.4688 87.0156C83.4688 87.8073 83.3021 88.5885 82.9688 89.3594C82.6458 90.1198 82.1927 90.8177 81.6094 91.4531C81.0365 92.0781 80.3646 92.5781 79.5938 92.9531C78.8333 93.3281 78.0052 93.5156 77.1094 93.5156C76.026 93.5156 75.0677 93.3125 74.2344 92.9062C73.4115 92.4896 72.724 91.9271 72.1719 91.2188C71.6302 90.5104 71.224 89.6979 70.9531 88.7812C70.6823 87.8646 70.5469 86.901 70.5469 85.8906C70.5469 84.7969 70.7135 83.7708 71.0469 82.8125C71.3802 81.8542 71.8646 81.0104 72.5 80.2812C73.1354 79.5417 73.9062 78.9688 74.8125 78.5625C75.7292 78.1458 76.7656 77.9375 77.9219 77.9375C79.151 77.9375 80.2292 78.1771 81.1562 78.6562C82.0833 79.1354 82.8646 79.7969 83.5 80.6406C84.1354 81.4844 84.6146 82.4635 84.9375 83.5781C85.2604 84.6927 85.4219 85.8906 85.4219 87.1719V88.5C85.4219 89.8438 85.3021 91.1406 85.0625 92.3906C84.8229 93.6302 84.4323 94.7812 83.8906 95.8438C83.3594 96.8958 82.6562 97.8229 81.7812 98.625C80.9167 99.4167 79.8542 100.036 78.5938 100.484C77.3438 100.922 75.875 101.141 74.1875 101.141H73.8438V98.0312Z" fill="white"/>
<path d="M50.1885 126.087V126.671C50.1885 127.365 50.1017 127.987 49.9282 128.537C49.7547 129.087 49.505 129.555 49.1792 129.94C48.8534 130.325 48.4619 130.619 48.0049 130.822C47.5521 131.025 47.0443 131.127 46.4814 131.127C45.9355 131.127 45.4341 131.025 44.9771 130.822C44.5243 130.619 44.1307 130.325 43.7964 129.94C43.4663 129.555 43.2103 129.087 43.0283 128.537C42.8464 127.987 42.7554 127.365 42.7554 126.671V126.087C42.7554 125.393 42.8442 124.773 43.022 124.227C43.2039 123.677 43.46 123.209 43.79 122.824C44.1201 122.435 44.5116 122.139 44.9644 121.936C45.4214 121.732 45.9229 121.631 46.4688 121.631C47.0316 121.631 47.5394 121.732 47.9922 121.936C48.4492 122.139 48.8407 122.435 49.1665 122.824C49.4966 123.209 49.7484 123.677 49.9219 124.227C50.0996 124.773 50.1885 125.393 50.1885 126.087ZM48.9761 126.671V126.074C48.9761 125.524 48.9189 125.037 48.8047 124.614C48.6947 124.191 48.5317 123.836 48.3159 123.548C48.1001 123.26 47.8356 123.042 47.5225 122.894C47.2135 122.746 46.8623 122.672 46.4688 122.672C46.0879 122.672 45.743 122.746 45.4341 122.894C45.1294 123.042 44.867 123.26 44.647 123.548C44.4312 123.836 44.264 124.191 44.1455 124.614C44.027 125.037 43.9678 125.524 43.9678 126.074V126.671C43.9678 127.225 44.027 127.716 44.1455 128.144C44.264 128.567 44.4333 128.924 44.6533 129.216C44.8776 129.504 45.1421 129.722 45.4468 129.87C45.7557 130.018 46.1006 130.092 46.4814 130.092C46.8792 130.092 47.2326 130.018 47.5415 129.87C47.8504 129.722 48.1107 129.504 48.3223 129.216C48.5381 128.924 48.701 128.567 48.811 128.144C48.9211 127.716 48.9761 127.225 48.9761 126.671ZM56.0474 129.413V124.132H57.228V131H56.1045L56.0474 129.413ZM56.2695 127.966L56.7583 127.953C56.7583 128.41 56.7096 128.833 56.6123 129.223C56.5192 129.608 56.3669 129.942 56.1553 130.226C55.9437 130.509 55.6665 130.731 55.3237 130.892C54.981 131.049 54.5641 131.127 54.0732 131.127C53.7389 131.127 53.4321 131.078 53.1528 130.981C52.8778 130.884 52.6408 130.733 52.4419 130.53C52.243 130.327 52.0885 130.063 51.9785 129.737C51.8727 129.411 51.8198 129.02 51.8198 128.562V124.132H52.9941V128.575C52.9941 128.884 53.028 129.14 53.0957 129.343C53.1676 129.542 53.2629 129.701 53.3813 129.819C53.5041 129.934 53.6395 130.014 53.7876 130.061C53.9399 130.107 54.0965 130.13 54.2573 130.13C54.7567 130.13 55.1523 130.035 55.4443 129.845C55.7363 129.65 55.9458 129.39 56.0728 129.064C56.2039 128.734 56.2695 128.368 56.2695 127.966ZM61.8936 124.132V125.033H58.1802V124.132H61.8936ZM59.437 122.462H60.6113V129.299C60.6113 129.532 60.6473 129.707 60.7192 129.826C60.7912 129.944 60.8843 130.022 60.9985 130.061C61.1128 130.099 61.2355 130.118 61.3667 130.118C61.464 130.118 61.5656 130.109 61.6714 130.092C61.7814 130.071 61.8639 130.054 61.9189 130.042L61.9253 131C61.8322 131.03 61.7095 131.057 61.5571 131.083C61.409 131.112 61.2292 131.127 61.0176 131.127C60.7298 131.127 60.4653 131.07 60.2241 130.956C59.9829 130.841 59.7904 130.651 59.6465 130.384C59.5068 130.113 59.437 129.75 59.437 129.292V122.462ZM66.1846 127.642V127.496C66.1846 127.001 66.2565 126.542 66.4004 126.119C66.5443 125.691 66.7516 125.321 67.0225 125.008C67.2933 124.69 67.6213 124.445 68.0063 124.271C68.3914 124.094 68.8231 124.005 69.3013 124.005C69.7837 124.005 70.2174 124.094 70.6025 124.271C70.9919 124.445 71.3219 124.69 71.5928 125.008C71.8678 125.321 72.0773 125.691 72.2212 126.119C72.3651 126.542 72.437 127.001 72.437 127.496V127.642C72.437 128.137 72.3651 128.596 72.2212 129.02C72.0773 129.443 71.8678 129.813 71.5928 130.13C71.3219 130.444 70.994 130.689 70.6089 130.867C70.228 131.04 69.7964 131.127 69.314 131.127C68.8315 131.127 68.3978 131.04 68.0127 130.867C67.6276 130.689 67.2975 130.444 67.0225 130.13C66.7516 129.813 66.5443 129.443 66.4004 129.02C66.2565 128.596 66.1846 128.137 66.1846 127.642ZM67.3589 127.496V127.642C67.3589 127.985 67.3991 128.309 67.4795 128.613C67.5599 128.914 67.6805 129.18 67.8413 129.413C68.0063 129.646 68.2116 129.83 68.457 129.965C68.7025 130.097 68.9881 130.162 69.314 130.162C69.6356 130.162 69.917 130.097 70.1582 129.965C70.4036 129.83 70.6068 129.646 70.7676 129.413C70.9284 129.18 71.049 128.914 71.1294 128.613C71.214 128.309 71.2563 127.985 71.2563 127.642V127.496C71.2563 127.158 71.214 126.838 71.1294 126.538C71.049 126.233 70.9263 125.964 70.7612 125.731C70.6004 125.494 70.3973 125.308 70.1519 125.173C69.9106 125.037 69.6271 124.97 69.3013 124.97C68.9797 124.97 68.6961 125.037 68.4507 125.173C68.2095 125.308 68.0063 125.494 67.8413 125.731C67.6805 125.964 67.5599 126.233 67.4795 126.538C67.3991 126.838 67.3589 127.158 67.3589 127.496ZM75.6616 131H74.4873V123.408C74.4873 122.913 74.5762 122.496 74.7539 122.158C74.9359 121.815 75.1961 121.557 75.5347 121.383C75.8732 121.206 76.2752 121.117 76.7407 121.117C76.8761 121.117 77.0116 121.125 77.147 121.142C77.2866 121.159 77.422 121.184 77.5532 121.218L77.4897 122.177C77.4009 122.156 77.2993 122.141 77.1851 122.132C77.075 122.124 76.965 122.12 76.855 122.12C76.6053 122.12 76.3895 122.17 76.2075 122.272C76.0298 122.369 75.8944 122.513 75.8013 122.704C75.7082 122.894 75.6616 123.129 75.6616 123.408V131ZM77.1216 124.132V125.033H73.4019V124.132H77.1216ZM85.3862 121.707V131H84.2119V123.173L81.8442 124.037V122.977L85.2021 121.707H85.3862ZM94.6411 125.643V127.052C94.6411 127.809 94.5734 128.448 94.438 128.969C94.3026 129.489 94.1079 129.908 93.854 130.226C93.6001 130.543 93.2933 130.774 92.9336 130.917C92.5781 131.057 92.1761 131.127 91.7275 131.127C91.3721 131.127 91.0441 131.083 90.7437 130.994C90.4432 130.905 90.1724 130.763 89.9312 130.568C89.6942 130.369 89.491 130.111 89.3218 129.794C89.1525 129.477 89.0234 129.091 88.9346 128.639C88.8457 128.186 88.8013 127.657 88.8013 127.052V125.643C88.8013 124.885 88.869 124.25 89.0044 123.738C89.144 123.226 89.3408 122.816 89.5947 122.507C89.8486 122.194 90.1533 121.969 90.5088 121.834C90.8685 121.699 91.2705 121.631 91.7148 121.631C92.0745 121.631 92.4046 121.675 92.7051 121.764C93.0098 121.849 93.2806 121.986 93.5176 122.177C93.7546 122.363 93.9556 122.613 94.1206 122.926C94.2899 123.235 94.4189 123.613 94.5078 124.062C94.5967 124.511 94.6411 125.037 94.6411 125.643ZM93.4604 127.242V125.446C93.4604 125.031 93.4351 124.667 93.3843 124.354C93.3377 124.037 93.2679 123.766 93.1748 123.542C93.0817 123.317 92.9632 123.135 92.8193 122.996C92.6797 122.856 92.5168 122.754 92.3306 122.691C92.1486 122.623 91.9434 122.589 91.7148 122.589C91.4355 122.589 91.188 122.642 90.9722 122.748C90.7563 122.85 90.5744 123.013 90.4263 123.237C90.2824 123.461 90.1724 123.755 90.0962 124.119C90.02 124.483 89.9819 124.925 89.9819 125.446V127.242C89.9819 127.657 90.0052 128.023 90.0518 128.34C90.1025 128.658 90.1766 128.933 90.2739 129.166C90.3713 129.394 90.4897 129.582 90.6294 129.73C90.769 129.879 90.9299 129.989 91.1118 130.061C91.298 130.128 91.5033 130.162 91.7275 130.162C92.0153 130.162 92.2671 130.107 92.4829 129.997C92.6987 129.887 92.8786 129.716 93.0225 129.483C93.1706 129.246 93.2806 128.943 93.3525 128.575C93.4245 128.203 93.4604 127.758 93.4604 127.242Z" fill="#B0AFB0"/>
<g filter="url(#filter0_d_202_607)">
<path d="M171 102.718L188.573 89.072L209.323 90.941L219.231 80.846L239.795 84.024L269.893 59.534L286.718 69.629L312.142 50" stroke="#3F6EFF"/>
</g>
<g filter="url(#filter1_d_202_607)">
<circle cx="262" cy="66" r="3" fill="#3F6EFF"/>
</g>
</g>
<defs>
<filter id="filter0_d_202_607" x="164.693" y="46.6042" width="153.754" height="65.5087" filterUnits="userSpaceOnUse" color-interpolation-filters="sRGB">
<feFlood flood-opacity="0" result="BackgroundImageFix"/>
<feColorMatrix in="SourceAlpha" type="matrix" values="0 0 0 0 0 0 0 0 0 0 0 0 0 0 0 0 0 0 127 0" result="hardAlpha"/>
<feOffset dy="3"/>
<feGaussianBlur stdDeviation="3"/>
<feColorMatrix type="matrix" values="0 0 0 0 0 0 0 0 0 0 0 0 0 0 0 0 0 0 0.5 0"/>
<feBlend mode="normal" in2="BackgroundImageFix" result="effect1_dropShadow_202_607"/>
<feBlend mode="normal" in="SourceGraphic" in2="effect1_dropShadow_202_607" result="shape"/>
</filter>
<filter id="filter1_d_202_607" x="255" y="61" width="14" height="14" filterUnits="userSpaceOnUse" color-interpolation-filters="sRGB">
<feFlood flood-opacity="0" result="BackgroundImageFix"/>
<feColorMatrix in="SourceAlpha" type="matrix" values="0 0 0 0 0 0 0 0 0 0 0 0 0 0 0 0 0 0 127 0" result="hardAlpha"/>
<feOffset dy="2"/>
<feGaussianBlur stdDeviation="2"/>
<feColorMatrix type="matrix" values="0 0 0 0 0.121569 0 0 0 0 0.105882 0 0 0 0 0.145098 0 0 0 1 0"/>
<feBlend mode="normal" in2="BackgroundImageFix" result="effect1_dropShadow_202_607"/>
<feBlend mode="normal" in="SourceGraphic" in2="effect1_dropShadow_202_607" result="shape"/>
</filter>
<clipPath id="clip0_202_607">
<rect width="341" height="160" fill="white"/>
</clipPath>
</defs>
</svg>
