<svg width="18" height="14" viewBox="0 0 18 14" fill="none" xmlns="http://www.w3.org/2000/svg">
<path fill-rule="evenodd" clip-rule="evenodd" d="M17.4204 11.8366C17.4204 12.5634 16.9061 13.1618 16.2816 13.1618H2.13878C1.51429 13.1618 1 12.5634 1 11.8366V2.32519C1 2.1542 1.03673 1.96183 1.09184 1.81221L8.2551 8.28855C8.53061 8.52366 8.86122 8.67328 9.2102 8.67328C9.55918 8.67328 9.8898 8.54504 10.1653 8.28855L17.3286 1.81221C17.3837 1.96183 17.4204 2.13282 17.4204 2.32519V11.8366ZM2.13878 1H16.2816C16.4469 1 16.6122 1.04275 16.759 1.12824L9.66939 7.54046C9.52245 7.6687 9.37551 7.73282 9.2102 7.73282C9.0449 7.73282 8.87959 7.6687 8.75102 7.54046L1.66122 1.12824C1.7898 1.04275 1.9551 1 2.13878 1Z" fill="white"/>
<path d="M1.09184 1.81221L1.2595 1.62677L0.985087 1.37867L0.857241 1.72582L1.09184 1.81221ZM8.2551 8.28855L8.08737 8.47407L8.09282 8.47872L8.2551 8.28855ZM10.1653 8.28855L9.99763 8.10309L9.99496 8.10557L10.1653 8.28855ZM17.3286 1.81221L17.5632 1.72582L17.4353 1.37867L17.1609 1.62677L17.3286 1.81221ZM16.759 1.12824L16.9267 1.31366L17.1803 1.08433L16.8848 0.912229L16.759 1.12824ZM9.66939 7.54046L9.8338 7.72884L9.83708 7.72587L9.66939 7.54046ZM8.75102 7.54046L8.92778 7.36325L8.91872 7.35504L8.75102 7.54046ZM1.66122 1.12824L1.52279 0.920069L1.25514 1.09805L1.49353 1.31366L1.66122 1.12824ZM17.1704 11.8366C17.1704 12.4622 16.7338 12.9118 16.2816 12.9118V13.4118C17.0784 13.4118 17.6704 12.6645 17.6704 11.8366H17.1704ZM16.2816 12.9118H2.13878V13.4118H16.2816V12.9118ZM2.13878 12.9118C1.68658 12.9118 1.25 12.4622 1.25 11.8366H0.75C0.75 12.6645 1.34199 13.4118 2.13878 13.4118V12.9118ZM1.25 11.8366V2.32519H0.75V11.8366H1.25ZM1.25 2.32519C1.25 2.18498 1.28106 2.02181 1.32643 1.89861L0.857241 1.72582C0.792407 1.90186 0.75 2.12342 0.75 2.32519H1.25ZM0.924176 1.99766L8.08744 8.47399L8.42276 8.10311L1.2595 1.62677L0.924176 1.99766ZM8.09282 8.47872C8.40199 8.74256 8.78809 8.92328 9.2102 8.92328V8.42328C8.93436 8.42328 8.65924 8.30477 8.41739 8.09838L8.09282 8.47872ZM9.2102 8.92328C9.62411 8.92328 10.0151 8.76991 10.3357 8.47153L9.99496 8.10557C9.76445 8.32016 9.49426 8.42328 9.2102 8.42328V8.92328ZM10.333 8.47399L17.4962 1.99766L17.1609 1.62677L9.99764 8.10311L10.333 8.47399ZM17.094 1.89861C17.14 2.02362 17.1704 2.1654 17.1704 2.32519H17.6704C17.6704 2.10025 17.6273 1.90004 17.5632 1.72582L17.094 1.89861ZM17.1704 2.32519V11.8366H17.6704V2.32519H17.1704ZM2.13878 1.25H16.2816V0.75H2.13878V1.25ZM16.2816 1.25C16.404 1.25 16.5257 1.28166 16.6332 1.34426L16.8848 0.912229C16.6988 0.803834 16.4899 0.75 16.2816 0.75V1.25ZM16.5913 0.942832L9.50169 7.35505L9.83708 7.72587L16.9267 1.31366L16.5913 0.942832ZM9.505 7.35211C9.39185 7.45086 9.3011 7.48282 9.2102 7.48282V7.98282C9.44992 7.98282 9.65305 7.88654 9.83378 7.72881L9.505 7.35211ZM9.2102 7.48282C9.11024 7.48282 9.00868 7.44436 8.92757 7.36346L8.57447 7.71746C8.75051 7.89305 8.97956 7.98282 9.2102 7.98282V7.48282ZM8.91872 7.35504L1.82892 0.94283L1.49353 1.31366L8.58333 7.72587L8.91872 7.35504ZM1.79965 1.33642C1.87805 1.28429 1.99207 1.25 2.13878 1.25V0.75C1.91813 0.75 1.70154 0.801208 1.52279 0.920069L1.79965 1.33642Z" fill="white"/>
</svg>
