<svg width="13" height="14" viewBox="0 0 13 14" fill="none" xmlns="http://www.w3.org/2000/svg">
<path d="M7 1H7.5V0.5H7V1ZM6 1V0.5H5.5V1H6ZM6 7V7.5H6.5V7H6ZM0.5 7V6.5H0V7H0.5ZM0.5 8H0V8.5H0.5V8ZM6 8H6.5V7.5H6V8ZM6 13H5.5V13.5H6V13ZM7 13V13.5H7.5V13H7ZM7 8V7.5H6.5V8H7ZM12.5 8V8.5H13V8H12.5ZM12.5 7H13V6.5H12.5V7ZM7 7H6.5V7.5H7V7ZM6.5 1V1.5H7.5V1H6.5ZM6 1.5H7V0.5H6V1.5ZM6.5 1.5V1H5.5V1.5H6.5ZM6.5 7V1.5H5.5V7H6.5ZM1 7.5H6V6.5H1V7.5ZM0.5 7.5H1V6.5H0.5V7.5ZM1 8V7H0V8H1ZM1 7.5H0.5V8.5H1V7.5ZM6 7.5H1V8.5H6V7.5ZM6.5 12.5V8H5.5V12.5H6.5ZM6.5 13V12.5H5.5V13H6.5ZM7 12.5H6V13.5H7V12.5ZM6.5 12.5V13H7.5V12.5H6.5ZM6.5 8V12.5H7.5V8H6.5ZM12 7.5H7V8.5H12V7.5ZM12.5 7.5H12V8.5H12.5V7.5ZM12 7V8H13V7H12ZM12 7.5H12.5V6.5H12V7.5ZM7 7.5H12V6.5H7V7.5ZM6.5 1.5V7H7.5V1.5H6.5Z" fill="#3F6EFF"/>
</svg>
