<svg width="20" height="20" viewBox="0 0 20 20" fill="none" xmlns="http://www.w3.org/2000/svg">
<path d="M12.2291 12.9362L12.7418 12.4236L12.2669 11.9487L11.7572 12.3859L12.2291 12.9362ZM17.5 18.2071L16.9873 18.7198L17.5 19.2324L18.0127 18.7198L17.5 18.2071ZM18.2071 17.5L18.7198 18.0127L19.2324 17.5L18.7198 16.9873L18.2071 17.5ZM12.9362 12.2291L12.3859 11.7572L11.9487 12.2669L12.4236 12.7418L12.9362 12.2291ZM8 1.775C4.56203 1.775 1.775 4.56203 1.775 8H3.225C3.225 5.36284 5.36284 3.225 8 3.225V1.775ZM14.225 8C14.225 4.56203 11.438 1.775 8 1.775V3.225C10.6372 3.225 12.775 5.36284 12.775 8H14.225ZM8 14.225C11.438 14.225 14.225 11.438 14.225 8H12.775C12.775 10.6372 10.6372 12.775 8 12.775V14.225ZM1.775 8C1.775 11.438 4.56203 14.225 8 14.225V12.775C5.36284 12.775 3.225 10.6372 3.225 8H1.775ZM2.225 8C2.225 4.81056 4.81056 2.225 8 2.225V0.775C4.00974 0.775 0.775 4.00974 0.775 8H2.225ZM8 13.775C4.81056 13.775 2.225 11.1894 2.225 8H0.775C0.775 11.9903 4.00974 15.225 8 15.225V13.775ZM11.7572 12.3859C10.7468 13.2523 9.43538 13.775 8 13.775V15.225C9.79452 15.225 11.4378 14.5698 12.7011 13.4866L11.7572 12.3859ZM17.6591 17.3409L12.7418 12.4236L11.7165 13.4489L16.6338 18.3662L17.6591 17.3409ZM18.0127 17.6945L17.6591 17.3409L16.6338 18.3662L16.9873 18.7198L18.0127 17.6945ZM17.6945 16.9873L16.9873 17.6945L18.0127 18.7198L18.7198 18.0127L17.6945 16.9873ZM17.3409 17.6591L17.6945 18.0127L18.7198 16.9873L18.3662 16.6338L17.3409 17.6591ZM12.4236 12.7418L17.3409 17.6591L18.3662 16.6338L13.4489 11.7165L12.4236 12.7418ZM13.775 8C13.775 9.43538 13.2523 10.7468 12.3859 11.7572L13.4866 12.7011C14.5698 11.4378 15.225 9.79452 15.225 8H13.775ZM8 2.225C11.1894 2.225 13.775 4.81056 13.775 8H15.225C15.225 4.00974 11.9903 0.775 8 0.775V2.225Z" fill="#3F6EFF"/>
</svg>
