<svg width="341" height="160" viewBox="0 0 341 160" fill="none" xmlns="http://www.w3.org/2000/svg">
<g clip-path="url(#clip0_202_615)">
<rect x="2" width="339" height="160" rx="23" fill="#241F2A"/>
<rect y="21" width="5" height="37" rx="2.5" fill="#FF9C00" stroke="#FF9C00"/>
<path d="M48.9302 33.4922V47H46.6201V33.4922H48.9302ZM53.1699 33.4922V35.3477H42.4175V33.4922H53.1699ZM53.0029 42.0923V41.8789C53.0029 41.1553 53.1081 40.4842 53.3184 39.8657C53.5286 39.241 53.8317 38.6999 54.2275 38.2422C54.6296 37.7783 55.1182 37.4196 55.6934 37.166C56.2747 36.9062 56.9303 36.7764 57.6602 36.7764C58.3962 36.7764 59.0518 36.9062 59.627 37.166C60.2083 37.4196 60.7 37.7783 61.1021 38.2422C61.5041 38.6999 61.8102 39.241 62.0205 39.8657C62.2308 40.4842 62.3359 41.1553 62.3359 41.8789V42.0923C62.3359 42.8159 62.2308 43.487 62.0205 44.1055C61.8102 44.724 61.5041 45.2651 61.1021 45.729C60.7 46.1867 60.2114 46.5454 59.6362 46.8052C59.061 47.0588 58.4085 47.1855 57.6787 47.1855C56.9427 47.1855 56.284 47.0588 55.7026 46.8052C55.1274 46.5454 54.6388 46.1867 54.2368 45.729C53.8348 45.2651 53.5286 44.724 53.3184 44.1055C53.1081 43.487 53.0029 42.8159 53.0029 42.0923ZM55.2388 41.8789V42.0923C55.2388 42.5438 55.2852 42.9705 55.3779 43.3726C55.4707 43.7746 55.616 44.1271 55.814 44.4302C56.0119 44.7332 56.2655 44.9714 56.5747 45.1445C56.884 45.3177 57.252 45.4043 57.6787 45.4043C58.0931 45.4043 58.4518 45.3177 58.7549 45.1445C59.0641 44.9714 59.3177 44.7332 59.5156 44.4302C59.7135 44.1271 59.8589 43.7746 59.9517 43.3726C60.0506 42.9705 60.1001 42.5438 60.1001 42.0923V41.8789C60.1001 41.4336 60.0506 41.013 59.9517 40.6172C59.8589 40.2152 59.7104 39.8595 59.5063 39.5503C59.3084 39.241 59.0549 38.9998 58.7456 38.8267C58.4425 38.6473 58.0807 38.5576 57.6602 38.5576C57.2396 38.5576 56.8747 38.6473 56.5654 38.8267C56.2624 38.9998 56.0119 39.241 55.814 39.5503C55.616 39.8595 55.4707 40.2152 55.3779 40.6172C55.2852 41.013 55.2388 41.4336 55.2388 41.8789ZM68.8115 36.9619V38.5947H63.1523V36.9619H68.8115ZM64.7852 34.5034H67.021V44.2261C67.021 44.5353 67.0643 44.7734 67.1509 44.9404C67.2437 45.1012 67.3704 45.2095 67.5312 45.2651C67.6921 45.3208 67.8807 45.3486 68.0972 45.3486C68.2518 45.3486 68.4002 45.3394 68.5425 45.3208C68.6847 45.3022 68.7992 45.2837 68.8857 45.2651L68.895 46.9722C68.7095 47.0278 68.493 47.0773 68.2456 47.1206C68.0044 47.1639 67.7261 47.1855 67.4106 47.1855C66.8973 47.1855 66.4427 47.0959 66.0469 46.9165C65.651 46.731 65.3418 46.431 65.1191 46.0166C64.8965 45.6022 64.7852 45.0518 64.7852 44.3652V34.5034ZM76.1963 44.9868V40.1997C76.1963 39.841 76.1313 39.5317 76.0015 39.272C75.8716 39.0122 75.6737 38.8112 75.4077 38.6689C75.1479 38.5267 74.8201 38.4556 74.4243 38.4556C74.0594 38.4556 73.744 38.5174 73.478 38.6411C73.2121 38.7648 73.0049 38.9318 72.8564 39.1421C72.708 39.3524 72.6338 39.5905 72.6338 39.8564H70.4072C70.4072 39.4606 70.5031 39.0771 70.6948 38.7061C70.8866 38.335 71.1649 38.0041 71.5298 37.7134C71.8947 37.4227 72.3307 37.1938 72.8379 37.0269C73.3451 36.8599 73.9141 36.7764 74.5449 36.7764C75.2995 36.7764 75.9674 36.9032 76.5488 37.1567C77.1364 37.4103 77.5972 37.7938 77.9312 38.3071C78.2713 38.8143 78.4414 39.4513 78.4414 40.2183V44.6807C78.4414 45.1383 78.4723 45.5496 78.5342 45.9146C78.6022 46.2733 78.6981 46.5856 78.8218 46.8516V47H76.5303C76.4251 46.7588 76.3416 46.4526 76.2798 46.0815C76.2241 45.7043 76.1963 45.3394 76.1963 44.9868ZM76.521 40.8955L76.5396 42.2778H74.9346C74.5202 42.2778 74.1553 42.318 73.8398 42.3984C73.5244 42.4727 73.2616 42.584 73.0513 42.7324C72.841 42.8809 72.6833 43.0602 72.5781 43.2705C72.473 43.4808 72.4204 43.7189 72.4204 43.9849C72.4204 44.2508 72.4823 44.4951 72.606 44.7178C72.7297 44.9342 72.909 45.1043 73.144 45.228C73.3853 45.3517 73.6759 45.4136 74.0161 45.4136C74.4738 45.4136 74.8727 45.3208 75.2129 45.1353C75.5592 44.9435 75.8314 44.7116 76.0293 44.4395C76.2272 44.1611 76.3324 43.8983 76.3447 43.6509L77.0684 44.6436C76.9941 44.8971 76.8674 45.1693 76.688 45.46C76.5086 45.7507 76.2736 46.029 75.9829 46.2949C75.6984 46.5547 75.3551 46.7681 74.9531 46.9351C74.5573 47.1021 74.0996 47.1855 73.5801 47.1855C72.9245 47.1855 72.34 47.0557 71.8267 46.7959C71.3133 46.5299 70.9113 46.1743 70.6206 45.729C70.3299 45.2775 70.1846 44.7673 70.1846 44.1982C70.1846 43.6663 70.2835 43.1963 70.4814 42.7881C70.6855 42.3737 70.9824 42.0273 71.3721 41.749C71.7679 41.4707 72.2503 41.2604 72.8193 41.1182C73.3883 40.9697 74.0378 40.8955 74.7676 40.8955H76.521ZM83.1729 32.75V47H80.9277V32.75H83.1729ZM97.6826 43.521C97.6826 43.2427 97.6393 42.9953 97.5527 42.7788C97.4723 42.5623 97.327 42.3644 97.1167 42.1851C96.9064 42.0057 96.6095 41.8325 96.2261 41.6655C95.8488 41.4924 95.3664 41.3161 94.7788 41.1367C94.1356 40.9388 93.5418 40.7192 92.9976 40.478C92.4595 40.2306 91.9894 39.9461 91.5874 39.6245C91.1854 39.2967 90.873 38.9225 90.6504 38.502C90.4277 38.0752 90.3164 37.5835 90.3164 37.0269C90.3164 36.4764 90.4308 35.9754 90.6597 35.5239C90.8947 35.0724 91.2256 34.6828 91.6523 34.355C92.0853 34.021 92.5955 33.7643 93.1831 33.585C93.7707 33.3994 94.4201 33.3066 95.1313 33.3066C96.1333 33.3066 96.9961 33.4922 97.7197 33.8633C98.4495 34.2344 99.0093 34.7323 99.3989 35.3569C99.7948 35.9816 99.9927 36.6712 99.9927 37.4258H97.6826C97.6826 36.9805 97.5868 36.5877 97.395 36.2476C97.2095 35.9012 96.925 35.6291 96.5415 35.4312C96.1642 35.2332 95.6849 35.1343 95.1035 35.1343C94.5531 35.1343 94.0954 35.2178 93.7305 35.3848C93.3656 35.5518 93.0934 35.7775 92.9141 36.062C92.7347 36.3465 92.645 36.6681 92.645 37.0269C92.645 37.2804 92.7038 37.5124 92.8213 37.7227C92.9388 37.9268 93.1182 38.1185 93.3594 38.2979C93.6006 38.471 93.9036 38.6349 94.2686 38.7896C94.6335 38.9442 95.0633 39.0926 95.5581 39.2349C96.3065 39.4575 96.959 39.7049 97.5156 39.9771C98.0723 40.243 98.5361 40.5461 98.9072 40.8862C99.2783 41.2264 99.5566 41.613 99.7422 42.0459C99.9277 42.4727 100.021 42.9582 100.021 43.5024C100.021 44.0715 99.9061 44.5848 99.6772 45.0425C99.4484 45.494 99.1206 45.8805 98.6938 46.2021C98.2733 46.5176 97.7661 46.7619 97.1724 46.9351C96.5848 47.1021 95.9292 47.1855 95.2056 47.1855C94.5562 47.1855 93.916 47.099 93.2852 46.9258C92.6605 46.7526 92.0915 46.4897 91.5781 46.1372C91.0648 45.7785 90.6566 45.3332 90.3535 44.8013C90.0505 44.2632 89.8989 43.6354 89.8989 42.918H92.2275C92.2275 43.3571 92.3018 43.7313 92.4502 44.0405C92.6048 44.3498 92.8182 44.6034 93.0903 44.8013C93.3625 44.993 93.6779 45.1353 94.0366 45.228C94.4015 45.3208 94.7912 45.3672 95.2056 45.3672C95.7498 45.3672 96.2044 45.2899 96.5693 45.1353C96.9404 44.9806 97.2188 44.7642 97.4043 44.4858C97.5898 44.2075 97.6826 43.8859 97.6826 43.521ZM107.517 44.9868V40.1997C107.517 39.841 107.452 39.5317 107.322 39.272C107.192 39.0122 106.994 38.8112 106.728 38.6689C106.468 38.5267 106.14 38.4556 105.745 38.4556C105.38 38.4556 105.064 38.5174 104.798 38.6411C104.532 38.7648 104.325 38.9318 104.177 39.1421C104.028 39.3524 103.954 39.5905 103.954 39.8564H101.728C101.728 39.4606 101.823 39.0771 102.015 38.7061C102.207 38.335 102.485 38.0041 102.85 37.7134C103.215 37.4227 103.651 37.1938 104.158 37.0269C104.665 36.8599 105.234 36.7764 105.865 36.7764C106.62 36.7764 107.288 36.9032 107.869 37.1567C108.457 37.4103 108.917 37.7938 109.251 38.3071C109.592 38.8143 109.762 39.4513 109.762 40.2183V44.6807C109.762 45.1383 109.793 45.5496 109.854 45.9146C109.923 46.2733 110.018 46.5856 110.142 46.8516V47H107.851C107.745 46.7588 107.662 46.4526 107.6 46.0815C107.544 45.7043 107.517 45.3394 107.517 44.9868ZM107.841 40.8955L107.86 42.2778H106.255C105.84 42.2778 105.476 42.318 105.16 42.3984C104.845 42.4727 104.582 42.584 104.372 42.7324C104.161 42.8809 104.004 43.0602 103.898 43.2705C103.793 43.4808 103.741 43.7189 103.741 43.9849C103.741 44.2508 103.803 44.4951 103.926 44.7178C104.05 44.9342 104.229 45.1043 104.464 45.228C104.706 45.3517 104.996 45.4136 105.336 45.4136C105.794 45.4136 106.193 45.3208 106.533 45.1353C106.88 44.9435 107.152 44.7116 107.35 44.4395C107.548 44.1611 107.653 43.8983 107.665 43.6509L108.389 44.6436C108.314 44.8971 108.188 45.1693 108.008 45.46C107.829 45.7507 107.594 46.029 107.303 46.2949C107.019 46.5547 106.675 46.7681 106.273 46.9351C105.878 47.1021 105.42 47.1855 104.9 47.1855C104.245 47.1855 103.66 47.0557 103.147 46.7959C102.634 46.5299 102.232 46.1743 101.941 45.729C101.65 45.2775 101.505 44.7673 101.505 44.1982C101.505 43.6663 101.604 43.1963 101.802 42.7881C102.006 42.3737 102.303 42.0273 102.692 41.749C103.088 41.4707 103.571 41.2604 104.14 41.1182C104.709 40.9697 105.358 40.8955 106.088 40.8955H107.841ZM115.217 45.228L117.675 36.9619H119.995L116.506 47H115.059L115.217 45.228ZM113.333 36.9619L115.838 45.2651L115.959 47H114.512L111.005 36.9619H113.333ZM125.672 47.1855C124.93 47.1855 124.259 47.0649 123.659 46.8237C123.065 46.5763 122.558 46.2331 122.138 45.7939C121.723 45.3548 121.405 44.8384 121.182 44.2446C120.959 43.6509 120.848 43.0107 120.848 42.3242V41.9531C120.848 41.1676 120.963 40.4564 121.191 39.8193C121.42 39.1823 121.739 38.638 122.147 38.1865C122.555 37.7288 123.038 37.3794 123.594 37.1382C124.151 36.897 124.754 36.7764 125.403 36.7764C126.121 36.7764 126.749 36.897 127.287 37.1382C127.825 37.3794 128.27 37.7196 128.623 38.1587C128.981 38.5916 129.247 39.1081 129.42 39.708C129.6 40.3079 129.689 40.9697 129.689 41.6934V42.6489H121.934V41.0439H127.481V40.8677C127.469 40.4657 127.389 40.0884 127.24 39.7358C127.098 39.3833 126.878 39.0988 126.582 38.8823C126.285 38.6659 125.889 38.5576 125.394 38.5576C125.023 38.5576 124.692 38.638 124.401 38.7988C124.117 38.9535 123.879 39.1792 123.687 39.4761C123.495 39.7729 123.347 40.1317 123.242 40.5522C123.143 40.9666 123.093 41.4336 123.093 41.9531V42.3242C123.093 42.7633 123.152 43.1715 123.27 43.5488C123.393 43.9199 123.573 44.2446 123.808 44.5229C124.043 44.8013 124.327 45.0208 124.661 45.1816C124.995 45.3363 125.375 45.4136 125.802 45.4136C126.34 45.4136 126.82 45.3053 127.24 45.0889C127.661 44.8724 128.026 44.5662 128.335 44.1704L129.513 45.3115C129.297 45.627 129.015 45.93 128.669 46.2207C128.323 46.5052 127.899 46.7371 127.398 46.9165C126.903 47.0959 126.328 47.1855 125.672 47.1855ZM137.557 44.9219V32.75H139.802V47H137.77L137.557 44.9219ZM131.025 42.0923V41.8975C131.025 41.1367 131.115 40.444 131.294 39.8193C131.474 39.1885 131.734 38.6473 132.074 38.1958C132.414 37.7381 132.828 37.3887 133.317 37.1475C133.806 36.9001 134.356 36.7764 134.968 36.7764C135.574 36.7764 136.106 36.8939 136.564 37.1289C137.022 37.3639 137.411 37.701 137.733 38.1401C138.055 38.5731 138.311 39.0926 138.503 39.6987C138.695 40.2987 138.831 40.9666 138.911 41.7026V42.3242C138.831 43.0417 138.695 43.6973 138.503 44.291C138.311 44.8848 138.055 45.3981 137.733 45.8311C137.411 46.264 137.019 46.598 136.555 46.833C136.097 47.068 135.562 47.1855 134.95 47.1855C134.344 47.1855 133.796 47.0588 133.308 46.8052C132.825 46.5516 132.414 46.196 132.074 45.7383C131.734 45.2806 131.474 44.7425 131.294 44.124C131.115 43.4993 131.025 42.8221 131.025 42.0923ZM133.261 41.8975V42.0923C133.261 42.55 133.301 42.9767 133.382 43.3726C133.468 43.7684 133.601 44.1178 133.781 44.4209C133.96 44.7178 134.192 44.9528 134.477 45.126C134.767 45.293 135.114 45.3765 135.516 45.3765C136.023 45.3765 136.44 45.2651 136.768 45.0425C137.096 44.8198 137.353 44.5199 137.538 44.1426C137.73 43.7591 137.86 43.3324 137.928 42.8623V41.1831C137.891 40.8182 137.813 40.478 137.696 40.1626C137.584 39.8472 137.433 39.5719 137.241 39.3369C137.049 39.0957 136.811 38.9102 136.527 38.7803C136.249 38.6442 135.918 38.5762 135.534 38.5762C135.126 38.5762 134.78 38.6628 134.495 38.8359C134.211 39.0091 133.976 39.2472 133.79 39.5503C133.611 39.8534 133.478 40.2059 133.391 40.6079C133.305 41.0099 133.261 41.4398 133.261 41.8975Z" fill="white"/>
<path d="M55.0938 79.1094H55.5625V82.1875H55.2969C53.9531 82.1875 52.7917 82.3958 51.8125 82.8125C50.8438 83.2292 50.0469 83.8021 49.4219 84.5312C48.7969 85.2604 48.3281 86.1146 48.0156 87.0938C47.7135 88.0625 47.5625 89.0938 47.5625 90.1875V93.7656C47.5625 94.6719 47.6615 95.474 47.8594 96.1719C48.0573 96.8594 48.3333 97.4375 48.6875 97.9062C49.0521 98.3646 49.4688 98.7135 49.9375 98.9531C50.4062 99.1927 50.9115 99.3125 51.4531 99.3125C52.0156 99.3125 52.526 99.1979 52.9844 98.9688C53.4427 98.7292 53.8333 98.401 54.1562 97.9844C54.4792 97.5677 54.724 97.0729 54.8906 96.5C55.0573 95.9271 55.1406 95.3021 55.1406 94.625C55.1406 93.9792 55.0573 93.375 54.8906 92.8125C54.7344 92.2396 54.5 91.7396 54.1875 91.3125C53.875 90.875 53.4844 90.5365 53.0156 90.2969C52.5573 90.0469 52.026 89.9219 51.4219 89.9219C50.6719 89.9219 49.9896 90.099 49.375 90.4531C48.7708 90.8073 48.2812 91.2708 47.9062 91.8438C47.5417 92.4062 47.3438 93.0052 47.3125 93.6406L45.875 93.1719C45.9583 92.2031 46.1719 91.3333 46.5156 90.5625C46.8698 89.7917 47.3333 89.1354 47.9062 88.5938C48.4792 88.0521 49.1406 87.6406 49.8906 87.3594C50.651 87.0677 51.4844 86.9219 52.3906 86.9219C53.4948 86.9219 54.4531 87.1302 55.2656 87.5469C56.0781 87.9635 56.75 88.5312 57.2812 89.25C57.8229 89.9583 58.224 90.7708 58.4844 91.6875C58.7552 92.5938 58.8906 93.5417 58.8906 94.5312C58.8906 95.625 58.724 96.6458 58.3906 97.5938C58.0573 98.5312 57.5677 99.3542 56.9219 100.062C56.2865 100.771 55.5104 101.323 54.5938 101.719C53.6875 102.115 52.6562 102.312 51.5 102.312C50.2812 102.312 49.1927 102.078 48.2344 101.609C47.2865 101.141 46.4792 100.495 45.8125 99.6719C45.1562 98.849 44.6562 97.901 44.3125 96.8281C43.9688 95.7552 43.7969 94.6198 43.7969 93.4219V91.8594C43.7969 90.1302 44.0156 88.5 44.4531 86.9688C44.8906 85.4271 45.5625 84.0677 46.4688 82.8906C47.3854 81.7135 48.5573 80.7917 49.9844 80.125C51.4115 79.4479 53.1146 79.1094 55.0938 79.1094ZM62.2812 100.125C62.2812 99.5417 62.4792 99.0521 62.875 98.6562C63.2708 98.25 63.8073 98.0469 64.4844 98.0469C65.1719 98.0469 65.7083 98.25 66.0938 98.6562C66.4896 99.0521 66.6875 99.5417 66.6875 100.125C66.6875 100.708 66.4896 101.198 66.0938 101.594C65.7083 101.99 65.1719 102.188 64.4844 102.188C63.8073 102.188 63.2708 101.99 62.875 101.594C62.4792 101.198 62.2812 100.708 62.2812 100.125ZM75.2344 88.9219H77.4844C78.3594 88.9219 79.0833 88.7708 79.6562 88.4688C80.2396 88.1667 80.6719 87.75 80.9531 87.2188C81.2344 86.6875 81.375 86.0781 81.375 85.3906C81.375 84.6719 81.2448 84.0573 80.9844 83.5469C80.7344 83.026 80.349 82.625 79.8281 82.3438C79.3177 82.0625 78.6667 81.9219 77.875 81.9219C77.2083 81.9219 76.6042 82.0573 76.0625 82.3281C75.5312 82.5885 75.1094 82.9635 74.7969 83.4531C74.4844 83.9323 74.3281 84.5052 74.3281 85.1719H70.5469C70.5469 83.9635 70.8646 82.8906 71.5 81.9531C72.1354 81.0156 73 80.2812 74.0938 79.75C75.1979 79.2083 76.4375 78.9375 77.8125 78.9375C79.2812 78.9375 80.5625 79.1823 81.6562 79.6719C82.7604 80.151 83.6198 80.8698 84.2344 81.8281C84.849 82.7865 85.1562 83.974 85.1562 85.3906C85.1562 86.0365 85.0052 86.6927 84.7031 87.3594C84.401 88.026 83.9531 88.6354 83.3594 89.1875C82.7656 89.7292 82.026 90.1719 81.1406 90.5156C80.2552 90.849 79.2292 91.0156 78.0625 91.0156H75.2344V88.9219ZM75.2344 91.8594V89.7969H78.0625C79.3958 89.7969 80.5312 89.9531 81.4688 90.2656C82.4167 90.5781 83.1875 91.0104 83.7812 91.5625C84.375 92.1042 84.8073 92.724 85.0781 93.4219C85.3594 94.1198 85.5 94.8594 85.5 95.6406C85.5 96.7031 85.3073 97.651 84.9219 98.4844C84.5469 99.3073 84.0104 100.005 83.3125 100.578C82.6146 101.151 81.7969 101.583 80.8594 101.875C79.9323 102.167 78.9219 102.312 77.8281 102.312C76.849 102.312 75.9115 102.177 75.0156 101.906C74.1198 101.635 73.3177 101.234 72.6094 100.703C71.901 100.161 71.3385 99.4896 70.9219 98.6875C70.5156 97.875 70.3125 96.9375 70.3125 95.875H74.0781C74.0781 96.5521 74.2344 97.151 74.5469 97.6719C74.8698 98.1823 75.3177 98.5833 75.8906 98.875C76.474 99.1667 77.1406 99.3125 77.8906 99.3125C78.6823 99.3125 79.3646 99.1719 79.9375 98.8906C80.5104 98.6094 80.9479 98.1927 81.25 97.6406C81.5625 97.0885 81.7188 96.4219 81.7188 95.6406C81.7188 94.7552 81.5469 94.0365 81.2031 93.4844C80.8594 92.9323 80.3698 92.526 79.7344 92.2656C79.099 91.9948 78.349 91.8594 77.4844 91.8594H75.2344ZM104.672 93.8906V96.8906H88.2656L88.1406 94.625L97.9531 79.25H100.969L97.7031 84.8438L92.0625 93.8906H104.672ZM101.828 79.25V102H98.0625V79.25H101.828ZM122.438 99V102H107.188V99.4219L114.594 91.3438C115.406 90.4271 116.047 89.6354 116.516 88.9688C116.984 88.3021 117.312 87.7031 117.5 87.1719C117.698 86.6302 117.797 86.1042 117.797 85.5938C117.797 84.875 117.661 84.2448 117.391 83.7031C117.13 83.151 116.745 82.7188 116.234 82.4062C115.724 82.0833 115.104 81.9219 114.375 81.9219C113.531 81.9219 112.823 82.1042 112.25 82.4688C111.677 82.8333 111.245 83.3385 110.953 83.9844C110.661 84.6198 110.516 85.349 110.516 86.1719H106.75C106.75 84.849 107.052 83.6406 107.656 82.5469C108.26 81.4427 109.135 80.5677 110.281 79.9219C111.427 79.2656 112.807 78.9375 114.422 78.9375C115.943 78.9375 117.234 79.1927 118.297 79.7031C119.359 80.2135 120.167 80.9375 120.719 81.875C121.281 82.8125 121.562 83.9219 121.562 85.2031C121.562 85.9115 121.448 86.6146 121.219 87.3125C120.99 88.0104 120.661 88.7083 120.234 89.4062C119.818 90.0938 119.323 90.7865 118.75 91.4844C118.177 92.1719 117.547 92.8698 116.859 93.5781L111.938 99H122.438Z" fill="white"/>
<path d="M46.6274 122.707V132H45.4531V124.173L43.0854 125.037V123.977L46.4434 122.707H46.6274ZM51.7944 126.801H52.6323C53.0428 126.801 53.3813 126.734 53.6479 126.598C53.9188 126.458 54.1198 126.27 54.251 126.033C54.3864 125.792 54.4541 125.521 54.4541 125.221C54.4541 124.865 54.3949 124.567 54.2764 124.326C54.1579 124.084 53.9801 123.903 53.7432 123.78C53.5062 123.657 53.2057 123.596 52.8418 123.596C52.5117 123.596 52.2197 123.661 51.9658 123.792C51.7161 123.919 51.5194 124.101 51.3755 124.338C51.2358 124.575 51.166 124.855 51.166 125.176H49.9917C49.9917 124.707 50.1102 124.279 50.3472 123.894C50.5841 123.509 50.9163 123.202 51.3438 122.974C51.7754 122.745 52.2747 122.631 52.8418 122.631C53.4004 122.631 53.8892 122.73 54.3081 122.929C54.7271 123.124 55.0529 123.416 55.2856 123.805C55.5184 124.19 55.6348 124.671 55.6348 125.246C55.6348 125.479 55.5798 125.729 55.4697 125.995C55.3639 126.257 55.1968 126.503 54.9683 126.731C54.744 126.96 54.452 127.148 54.0923 127.296C53.7326 127.44 53.3009 127.512 52.7974 127.512H51.7944V126.801ZM51.7944 127.766V127.062H52.7974C53.3856 127.062 53.8722 127.131 54.2573 127.271C54.6424 127.411 54.945 127.597 55.165 127.83C55.3893 128.062 55.5459 128.318 55.6348 128.598C55.7279 128.873 55.7744 129.148 55.7744 129.423C55.7744 129.854 55.7004 130.237 55.5522 130.572C55.4084 130.906 55.2031 131.19 54.9365 131.422C54.6742 131.655 54.3652 131.831 54.0098 131.949C53.6543 132.068 53.2671 132.127 52.8481 132.127C52.4461 132.127 52.0674 132.07 51.7119 131.956C51.3607 131.841 51.0496 131.676 50.7788 131.46C50.508 131.24 50.2964 130.972 50.144 130.654C49.9917 130.333 49.9155 129.967 49.9155 129.556H51.0898C51.0898 129.878 51.1597 130.159 51.2993 130.4C51.4432 130.642 51.6463 130.83 51.9087 130.965C52.1753 131.097 52.4884 131.162 52.8481 131.162C53.2078 131.162 53.5168 131.101 53.7749 130.978C54.0373 130.851 54.2383 130.661 54.3779 130.407C54.5218 130.153 54.5938 129.833 54.5938 129.448C54.5938 129.063 54.5133 128.748 54.3525 128.502C54.1917 128.253 53.9632 128.069 53.667 127.95C53.375 127.827 53.0301 127.766 52.6323 127.766H51.7944ZM58.561 131.016H58.6816C59.3587 131.016 59.9089 130.921 60.332 130.73C60.7552 130.54 61.0811 130.284 61.3096 129.962C61.5381 129.641 61.6947 129.279 61.7793 128.877C61.8639 128.471 61.9062 128.054 61.9062 127.626V126.211C61.9062 125.792 61.8576 125.42 61.7603 125.094C61.6672 124.768 61.536 124.495 61.3667 124.275C61.2017 124.055 61.0133 123.888 60.8018 123.773C60.5902 123.659 60.3659 123.602 60.1289 123.602C59.8581 123.602 59.6147 123.657 59.3989 123.767C59.1873 123.873 59.0075 124.023 58.8594 124.218C58.7155 124.412 58.6055 124.641 58.5293 124.903C58.4531 125.166 58.415 125.451 58.415 125.76C58.415 126.035 58.4489 126.302 58.5166 126.56C58.5843 126.818 58.688 127.051 58.8276 127.258C58.9673 127.466 59.1408 127.631 59.3481 127.753C59.5597 127.872 59.8073 127.931 60.0908 127.931C60.3532 127.931 60.5986 127.88 60.8271 127.779C61.0599 127.673 61.2651 127.531 61.4429 127.354C61.6248 127.172 61.7687 126.966 61.8745 126.738C61.9845 126.509 62.048 126.27 62.0649 126.021H62.6235C62.6235 126.372 62.5537 126.719 62.4141 127.062C62.2786 127.4 62.0882 127.709 61.8428 127.988C61.5973 128.268 61.3096 128.492 60.9795 128.661C60.6494 128.826 60.2897 128.909 59.9004 128.909C59.4434 128.909 59.0477 128.82 58.7134 128.642C58.3791 128.464 58.104 128.227 57.8882 127.931C57.6766 127.635 57.5179 127.305 57.4121 126.941C57.3105 126.573 57.2598 126.2 57.2598 125.824C57.2598 125.384 57.3211 124.971 57.4438 124.586C57.5666 124.201 57.7485 123.862 57.9897 123.57C58.231 123.274 58.5293 123.043 58.8848 122.878C59.2445 122.713 59.6592 122.631 60.1289 122.631C60.6579 122.631 61.1086 122.737 61.481 122.948C61.8534 123.16 62.1559 123.443 62.3887 123.799C62.6257 124.154 62.7992 124.554 62.9092 124.999C63.0192 125.443 63.0742 125.9 63.0742 126.37V126.795C63.0742 127.273 63.0425 127.76 62.979 128.255C62.9198 128.746 62.8034 129.215 62.6299 129.664C62.4606 130.113 62.2131 130.515 61.8872 130.87C61.5614 131.221 61.1361 131.501 60.6113 131.708C60.0908 131.911 59.4476 132.013 58.6816 132.013H58.561V131.016ZM70.5073 126.643V128.052C70.5073 128.809 70.4396 129.448 70.3042 129.969C70.1688 130.489 69.9741 130.908 69.7202 131.226C69.4663 131.543 69.1595 131.774 68.7998 131.917C68.4443 132.057 68.0423 132.127 67.5938 132.127C67.2383 132.127 66.9103 132.083 66.6099 131.994C66.3094 131.905 66.0386 131.763 65.7974 131.568C65.5604 131.369 65.3573 131.111 65.188 130.794C65.0187 130.477 64.8896 130.091 64.8008 129.639C64.7119 129.186 64.6675 128.657 64.6675 128.052V126.643C64.6675 125.885 64.7352 125.25 64.8706 124.738C65.0103 124.226 65.207 123.816 65.4609 123.507C65.7148 123.194 66.0195 122.969 66.375 122.834C66.7347 122.699 67.1367 122.631 67.5811 122.631C67.9408 122.631 68.2708 122.675 68.5713 122.764C68.876 122.849 69.1468 122.986 69.3838 123.177C69.6208 123.363 69.8218 123.613 69.9868 123.926C70.1561 124.235 70.2852 124.613 70.374 125.062C70.4629 125.511 70.5073 126.037 70.5073 126.643ZM69.3267 128.242V126.446C69.3267 126.031 69.3013 125.667 69.2505 125.354C69.2039 125.037 69.1341 124.766 69.041 124.542C68.9479 124.317 68.8294 124.135 68.6855 123.996C68.5459 123.856 68.383 123.754 68.1968 123.691C68.0148 123.623 67.8096 123.589 67.5811 123.589C67.3018 123.589 67.0542 123.642 66.8384 123.748C66.6226 123.85 66.4406 124.013 66.2925 124.237C66.1486 124.461 66.0386 124.755 65.9624 125.119C65.8862 125.483 65.8481 125.925 65.8481 126.446V128.242C65.8481 128.657 65.8714 129.023 65.918 129.34C65.9688 129.658 66.0428 129.933 66.1401 130.166C66.2375 130.394 66.356 130.582 66.4956 130.73C66.6353 130.879 66.7961 130.989 66.978 131.061C67.1642 131.128 67.3695 131.162 67.5938 131.162C67.8815 131.162 68.1333 131.107 68.3491 130.997C68.5649 130.887 68.7448 130.716 68.8887 130.483C69.0368 130.246 69.1468 129.943 69.2188 129.575C69.2907 129.203 69.3267 128.758 69.3267 128.242ZM76.1631 125.132L77.6675 127.633L79.1909 125.132H80.5684L78.3213 128.521L80.6382 132H79.2798L77.6929 129.423L76.106 132H74.7412L77.0518 128.521L74.811 125.132H76.1631ZM88.4268 121.26V123.196H87.4746V121.26H88.4268ZM88.3125 131.625V133.32H87.3667V131.625H88.3125ZM89.582 129.62C89.582 129.366 89.5249 129.137 89.4106 128.934C89.2964 128.731 89.1081 128.545 88.8457 128.375C88.5833 128.206 88.2321 128.05 87.792 127.906C87.2588 127.741 86.7975 127.54 86.4082 127.303C86.0231 127.066 85.7248 126.772 85.5132 126.42C85.3058 126.069 85.2021 125.644 85.2021 125.145C85.2021 124.624 85.3143 124.175 85.5386 123.799C85.7629 123.422 86.0802 123.132 86.4907 122.929C86.9012 122.726 87.3836 122.625 87.938 122.625C88.3696 122.625 88.7547 122.69 89.0933 122.821C89.4318 122.948 89.7174 123.139 89.9502 123.393C90.1872 123.646 90.367 123.958 90.4897 124.326C90.6167 124.694 90.6802 125.119 90.6802 125.602H89.5122C89.5122 125.318 89.4784 125.058 89.4106 124.821C89.3429 124.584 89.2414 124.379 89.106 124.205C88.9705 124.027 88.8055 123.892 88.6108 123.799C88.4162 123.701 88.1919 123.653 87.938 123.653C87.5825 123.653 87.2884 123.714 87.0557 123.837C86.8271 123.96 86.6579 124.133 86.5479 124.357C86.4378 124.577 86.3828 124.833 86.3828 125.125C86.3828 125.396 86.4378 125.633 86.5479 125.836C86.6579 126.04 86.8441 126.224 87.1064 126.389C87.373 126.549 87.7391 126.708 88.2046 126.865C88.7505 127.038 89.2139 127.243 89.5947 127.48C89.9756 127.713 90.2655 128.001 90.4644 128.344C90.6632 128.682 90.7627 129.103 90.7627 129.607C90.7627 130.153 90.64 130.614 90.3945 130.991C90.1491 131.363 89.8042 131.647 89.3599 131.841C88.9155 132.036 88.395 132.133 87.7983 132.133C87.4386 132.133 87.0832 132.085 86.7319 131.987C86.3807 131.89 86.0633 131.731 85.7798 131.511C85.4963 131.287 85.2699 130.993 85.1006 130.629C84.9313 130.261 84.8467 129.81 84.8467 129.277H86.0273C86.0273 129.637 86.0781 129.935 86.1797 130.172C86.2855 130.405 86.4251 130.591 86.5986 130.73C86.7721 130.866 86.9626 130.963 87.1699 131.022C87.3815 131.077 87.591 131.105 87.7983 131.105C88.1792 131.105 88.5008 131.046 88.7632 130.927C89.0298 130.805 89.2329 130.631 89.3726 130.407C89.5122 130.182 89.582 129.92 89.582 129.62ZM98.0308 126.643V128.052C98.0308 128.809 97.9631 129.448 97.8276 129.969C97.6922 130.489 97.4976 130.908 97.2437 131.226C96.9897 131.543 96.6829 131.774 96.3232 131.917C95.9678 132.057 95.5658 132.127 95.1172 132.127C94.7617 132.127 94.4338 132.083 94.1333 131.994C93.8328 131.905 93.562 131.763 93.3208 131.568C93.0838 131.369 92.8807 131.111 92.7114 130.794C92.5422 130.477 92.4131 130.091 92.3242 129.639C92.2354 129.186 92.1909 128.657 92.1909 128.052V126.643C92.1909 125.885 92.2586 125.25 92.394 124.738C92.5337 124.226 92.7305 123.816 92.9844 123.507C93.2383 123.194 93.543 122.969 93.8984 122.834C94.2581 122.699 94.6602 122.631 95.1045 122.631C95.4642 122.631 95.7943 122.675 96.0947 122.764C96.3994 122.849 96.6702 122.986 96.9072 123.177C97.1442 123.363 97.3452 123.613 97.5103 123.926C97.6795 124.235 97.8086 124.613 97.8975 125.062C97.9863 125.511 98.0308 126.037 98.0308 126.643ZM96.8501 128.242V126.446C96.8501 126.031 96.8247 125.667 96.7739 125.354C96.7274 125.037 96.6576 124.766 96.5645 124.542C96.4714 124.317 96.3529 124.135 96.209 123.996C96.0693 123.856 95.9064 123.754 95.7202 123.691C95.5382 123.623 95.333 123.589 95.1045 123.589C94.8252 123.589 94.5776 123.642 94.3618 123.748C94.146 123.85 93.964 124.013 93.8159 124.237C93.672 124.461 93.562 124.755 93.4858 125.119C93.4097 125.483 93.3716 125.925 93.3716 126.446V128.242C93.3716 128.657 93.3949 129.023 93.4414 129.34C93.4922 129.658 93.5662 129.933 93.6636 130.166C93.7609 130.394 93.8794 130.582 94.019 130.73C94.1587 130.879 94.3195 130.989 94.5015 131.061C94.6877 131.128 94.8929 131.162 95.1172 131.162C95.4049 131.162 95.6567 131.107 95.8726 130.997C96.0884 130.887 96.2682 130.716 96.4121 130.483C96.5602 130.246 96.6702 129.943 96.7422 129.575C96.8141 129.203 96.8501 128.758 96.8501 128.242ZM99.6875 131.378C99.6875 131.179 99.7489 131.012 99.8716 130.876C99.9985 130.737 100.181 130.667 100.417 130.667C100.654 130.667 100.834 130.737 100.957 130.876C101.084 131.012 101.147 131.179 101.147 131.378C101.147 131.573 101.084 131.738 100.957 131.873C100.834 132.008 100.654 132.076 100.417 132.076C100.181 132.076 99.9985 132.008 99.8716 131.873C99.7489 131.738 99.6875 131.573 99.6875 131.378ZM109.215 128.89V129.854H102.538V129.163L106.676 122.758H107.635L106.606 124.611L103.871 128.89H109.215ZM107.927 122.758V132H106.752V122.758H107.927ZM119.391 129.061H120.609C120.546 129.645 120.379 130.168 120.108 130.629C119.837 131.09 119.454 131.456 118.959 131.727C118.464 131.994 117.846 132.127 117.105 132.127C116.564 132.127 116.071 132.025 115.626 131.822C115.186 131.619 114.808 131.331 114.49 130.959C114.173 130.582 113.927 130.132 113.754 129.607C113.585 129.078 113.5 128.49 113.5 127.842V126.922C113.5 126.274 113.585 125.688 113.754 125.164C113.927 124.635 114.175 124.182 114.497 123.805C114.822 123.429 115.214 123.139 115.671 122.936C116.128 122.732 116.642 122.631 117.213 122.631C117.912 122.631 118.502 122.762 118.984 123.024C119.467 123.287 119.841 123.651 120.108 124.116C120.379 124.577 120.546 125.113 120.609 125.722H119.391C119.331 125.291 119.221 124.92 119.061 124.611C118.9 124.298 118.671 124.057 118.375 123.888C118.079 123.718 117.692 123.634 117.213 123.634C116.803 123.634 116.441 123.712 116.128 123.869C115.819 124.025 115.559 124.247 115.347 124.535C115.14 124.823 114.983 125.168 114.877 125.57C114.772 125.972 114.719 126.418 114.719 126.909V127.842C114.719 128.295 114.765 128.72 114.858 129.118C114.956 129.516 115.102 129.865 115.296 130.166C115.491 130.466 115.739 130.703 116.039 130.876C116.34 131.046 116.695 131.13 117.105 131.13C117.626 131.13 118.041 131.048 118.35 130.883C118.659 130.718 118.891 130.481 119.048 130.172C119.209 129.863 119.323 129.493 119.391 129.061ZM125.688 128.375H123.218V127.379H125.688C126.166 127.379 126.553 127.303 126.849 127.15C127.145 126.998 127.361 126.786 127.497 126.516C127.636 126.245 127.706 125.936 127.706 125.589C127.706 125.271 127.636 124.973 127.497 124.694C127.361 124.415 127.145 124.19 126.849 124.021C126.553 123.847 126.166 123.761 125.688 123.761H123.504V132H122.279V122.758H125.688C126.386 122.758 126.976 122.878 127.458 123.12C127.941 123.361 128.307 123.695 128.557 124.123C128.806 124.546 128.931 125.03 128.931 125.576C128.931 126.169 128.806 126.674 128.557 127.093C128.307 127.512 127.941 127.832 127.458 128.052C126.976 128.268 126.386 128.375 125.688 128.375ZM136.06 129.061H137.278C137.215 129.645 137.048 130.168 136.777 130.629C136.506 131.09 136.123 131.456 135.628 131.727C135.133 131.994 134.515 132.127 133.774 132.127C133.233 132.127 132.74 132.025 132.295 131.822C131.855 131.619 131.477 131.331 131.159 130.959C130.842 130.582 130.596 130.132 130.423 129.607C130.254 129.078 130.169 128.49 130.169 127.842V126.922C130.169 126.274 130.254 125.688 130.423 125.164C130.596 124.635 130.844 124.182 131.166 123.805C131.491 123.429 131.883 123.139 132.34 122.936C132.797 122.732 133.311 122.631 133.882 122.631C134.581 122.631 135.171 122.762 135.653 123.024C136.136 123.287 136.51 123.651 136.777 124.116C137.048 124.577 137.215 125.113 137.278 125.722H136.06C136 125.291 135.89 124.92 135.729 124.611C135.569 124.298 135.34 124.057 135.044 123.888C134.748 123.718 134.361 123.634 133.882 123.634C133.472 123.634 133.11 123.712 132.797 123.869C132.488 124.025 132.228 124.247 132.016 124.535C131.809 124.823 131.652 125.168 131.546 125.57C131.441 125.972 131.388 126.418 131.388 126.909V127.842C131.388 128.295 131.434 128.72 131.527 129.118C131.625 129.516 131.771 129.865 131.965 130.166C132.16 130.466 132.408 130.703 132.708 130.876C133.008 131.046 133.364 131.13 133.774 131.13C134.295 131.13 134.71 131.048 135.019 130.883C135.327 130.718 135.56 130.481 135.717 130.172C135.878 129.863 135.992 129.493 136.06 129.061Z" fill="#B0AFB0"/>
<g filter="url(#filter0_d_202_615)">
<path d="M171 94.376L189.362 100.496L211.396 82.746L223.434 88.255L239.143 75.605L255.669 78.258L270.971 70.505L289.128 81.114L312.387 55" stroke="#FF9C00"/>
</g>
<g filter="url(#filter1_d_202_615)">
<circle cx="262" cy="74" r="3" fill="#FF9C00"/>
</g>
</g>
<defs>
<filter id="filter0_d_202_615" x="164.842" y="51.6675" width="153.918" height="58.3892" filterUnits="userSpaceOnUse" color-interpolation-filters="sRGB">
<feFlood flood-opacity="0" result="BackgroundImageFix"/>
<feColorMatrix in="SourceAlpha" type="matrix" values="0 0 0 0 0 0 0 0 0 0 0 0 0 0 0 0 0 0 127 0" result="hardAlpha"/>
<feOffset dy="3"/>
<feGaussianBlur stdDeviation="3"/>
<feColorMatrix type="matrix" values="0 0 0 0 1 0 0 0 0 0.611765 0 0 0 0 0 0 0 0 1 0"/>
<feBlend mode="normal" in2="BackgroundImageFix" result="effect1_dropShadow_202_615"/>
<feBlend mode="normal" in="SourceGraphic" in2="effect1_dropShadow_202_615" result="shape"/>
</filter>
<filter id="filter1_d_202_615" x="255" y="69" width="14" height="14" filterUnits="userSpaceOnUse" color-interpolation-filters="sRGB">
<feFlood flood-opacity="0" result="BackgroundImageFix"/>
<feColorMatrix in="SourceAlpha" type="matrix" values="0 0 0 0 0 0 0 0 0 0 0 0 0 0 0 0 0 0 127 0" result="hardAlpha"/>
<feOffset dy="2"/>
<feGaussianBlur stdDeviation="2"/>
<feColorMatrix type="matrix" values="0 0 0 0 0.32549 0 0 0 0 0.223529 0 0 0 0 0.12549 0 0 0 1 0"/>
<feBlend mode="normal" in2="BackgroundImageFix" result="effect1_dropShadow_202_615"/>
<feBlend mode="normal" in="SourceGraphic" in2="effect1_dropShadow_202_615" result="shape"/>
</filter>
<clipPath id="clip0_202_615">
<rect width="341" height="160" fill="white"/>
</clipPath>
</defs>
</svg>
